<svg width="1080" height="1920" viewBox="0 0 1080 1920" fill="none" xmlns="http://www.w3.org/2000/svg">
<g clip-path="url(#clip0)">
<rect width="1080" height="1920" fill="white"/>
<rect y="65" width="1080" height="150" fill="#135D9C"/>
<path d="M89.4933 165.114L86.5201 168.063C85.2612 169.311 83.2255 169.311 81.9799 168.063L55.9442 142.257C54.6853 141.009 54.6853 138.99 55.9442 137.755L81.9799 111.936C83.2388 110.688 85.2746 110.688 86.5201 111.936L89.4933 114.885C90.7656 116.146 90.7388 118.205 89.4397 119.44L73.3013 134.687H111.792C113.574 134.687 115.007 136.108 115.007 137.875V142.125C115.007 143.891 113.574 145.312 111.792 145.312H73.3013L89.4397 160.559C90.7522 161.794 90.779 163.853 89.4933 165.114Z" fill="white"/>
<path d="M238 124.332V117.706H225.613V120.953C222.844 118.491 219.272 117 215.367 117C211.122 117 207.278 118.773 204.43 121.641C206.361 123.882 207.776 126.635 208.449 129.679C209.916 126.361 213.096 124.058 216.782 124.058C221.866 124.058 225.998 128.426 225.998 133.817C225.998 139.207 221.875 143.575 216.782 143.575C215.812 143.575 214.834 143.416 213.917 143.09C213.017 142.781 212.17 142.322 211.41 141.74C210.65 141.157 209.977 140.46 209.418 139.675C208.693 138.652 208.143 137.469 207.855 136.243C207.575 135.025 207.601 133.781 207.514 132.546C207.383 130.473 206.876 128.461 206.02 126.582C205.776 126.044 205.505 125.523 205.208 125.02C204.911 124.517 204.596 124.032 204.247 123.564C204.028 123.264 203.801 122.973 203.557 122.7C203.539 122.682 203.531 122.673 203.513 122.656C203.111 122.206 202.709 121.764 202.281 121.35C201.871 120.962 201.443 120.591 201.006 120.247C200.561 119.903 200.098 119.585 199.626 119.285C199.145 118.994 198.656 118.72 198.15 118.482C197.643 118.235 197.119 118.023 196.586 117.838C196.053 117.653 195.503 117.494 194.944 117.371C194.385 117.247 193.817 117.15 193.24 117.088C192.699 117.026 192.148 117 191.607 117C187.711 117 184.147 118.473 181.378 120.917V117.697H169V124.323H173.324V157.374H169V164H185.981V157.374H181.465V146.76C184.226 149.16 187.763 150.598 191.616 150.598C195.87 150.598 199.713 148.824 202.57 145.966C200.639 143.734 199.242 140.998 198.56 137.972C197.084 141.281 193.904 143.575 190.218 143.575C185.117 143.575 180.985 139.207 180.985 133.817C180.985 128.426 185.117 124.058 190.218 124.058C192.175 124.058 194.096 124.729 195.651 125.929C197.538 127.385 198.84 129.555 199.25 131.911C199.635 134.134 199.486 136.393 200.098 138.581C200.753 140.928 201.915 143.134 203.504 144.978C206.422 148.419 210.65 150.607 215.367 150.607C219.272 150.607 222.844 149.116 225.613 146.654V149.769H238V143.142H233.562V124.332H238Z" fill="white"/>
<path d="M309.411 157H302.429L295.769 133.582C295.482 132.562 295.124 131.093 294.694 129.178C294.265 127.244 294.005 125.901 293.916 125.149C293.736 126.295 293.441 127.781 293.029 129.607C292.635 131.434 292.304 132.794 292.036 133.689L285.537 157H278.554L273.479 137.342L268.322 117.737H274.875L280.488 140.618C281.365 144.288 281.992 147.529 282.368 150.34C282.565 148.818 282.86 147.117 283.254 145.237C283.648 143.357 284.006 141.836 284.328 140.672L290.72 117.737H297.084L303.637 140.779C304.264 142.91 304.926 146.097 305.625 150.34C305.893 147.78 306.538 144.521 307.558 140.564L313.144 117.737H319.643L309.411 157ZM330.869 157H324.558V127.298H330.869V157ZM324.182 119.429C324.182 118.301 324.486 117.433 325.095 116.824C325.721 116.215 326.608 115.911 327.753 115.911C328.863 115.911 329.723 116.215 330.332 116.824C330.958 117.433 331.271 118.301 331.271 119.429C331.271 120.503 330.958 121.354 330.332 121.98C329.723 122.589 328.863 122.894 327.753 122.894C326.608 122.894 325.721 122.589 325.095 121.98C324.486 121.354 324.182 120.503 324.182 119.429ZM337.341 144.942V139.571H351.145V144.942H337.341ZM364.68 157H358.315V117.737H380.471V123.162H364.68V135.435H379.477V140.887H364.68V157ZM393.227 157H386.916V127.298H393.227V157ZM386.54 119.429C386.54 118.301 386.844 117.433 387.453 116.824C388.08 116.215 388.966 115.911 390.112 115.911C391.222 115.911 392.081 116.215 392.69 116.824C393.317 117.433 393.63 118.301 393.63 119.429C393.63 120.503 393.317 121.354 392.69 121.98C392.081 122.589 391.222 122.894 390.112 122.894C388.966 122.894 388.08 122.589 387.453 121.98C386.844 121.354 386.54 120.503 386.54 119.429ZM439.875 146.338C439.875 149.83 438.613 152.569 436.088 154.556C433.564 156.543 430.082 157.537 425.642 157.537C421.201 157.537 417.567 156.848 414.738 155.469V149.4C416.529 150.241 418.426 150.904 420.432 151.387C422.455 151.871 424.335 152.112 426.071 152.112C428.614 152.112 430.485 151.629 431.684 150.662C432.902 149.695 433.51 148.397 433.51 146.768C433.51 145.3 432.955 144.056 431.845 143.035C430.735 142.015 428.444 140.806 424.97 139.41C421.389 137.959 418.865 136.303 417.397 134.441C415.929 132.579 415.195 130.341 415.195 127.728C415.195 124.451 416.359 121.873 418.686 119.993C421.014 118.113 424.138 117.173 428.059 117.173C431.818 117.173 435.56 117.997 439.284 119.644L437.243 124.881C433.752 123.413 430.637 122.679 427.897 122.679C425.821 122.679 424.245 123.135 423.171 124.048C422.097 124.944 421.56 126.134 421.56 127.62C421.56 128.641 421.774 129.518 422.204 130.252C422.634 130.968 423.341 131.648 424.326 132.293C425.31 132.938 427.083 133.788 429.643 134.844C432.526 136.044 434.638 137.163 435.981 138.201C437.324 139.24 438.308 140.412 438.935 141.719C439.562 143.026 439.875 144.566 439.875 146.338ZM459.775 157.537C455.156 157.537 451.539 156.194 448.925 153.509C446.329 150.805 445.031 147.09 445.031 142.364C445.031 137.512 446.24 133.698 448.657 130.923C451.074 128.148 454.395 126.761 458.62 126.761C462.541 126.761 465.638 127.951 467.912 130.333C470.186 132.714 471.323 135.99 471.323 140.162V143.572H451.53C451.62 146.455 452.399 148.675 453.867 150.232C455.335 151.772 457.403 152.542 460.07 152.542C461.825 152.542 463.454 152.381 464.958 152.059C466.48 151.718 468.109 151.163 469.846 150.394V155.523C468.306 156.257 466.748 156.776 465.173 157.081C463.597 157.385 461.798 157.537 459.775 157.537ZM458.62 131.541C456.615 131.541 455.004 132.177 453.786 133.448C452.587 134.719 451.87 136.572 451.638 139.007H465.119C465.083 136.554 464.493 134.701 463.347 133.448C462.201 132.177 460.625 131.541 458.62 131.541ZM489.558 152.435C491.097 152.435 492.637 152.193 494.177 151.709V156.463C493.479 156.767 492.574 157.018 491.464 157.215C490.372 157.43 489.235 157.537 488.054 157.537C482.074 157.537 479.084 154.386 479.084 148.084V132.078H475.029V129.285L479.379 126.976L481.528 120.691H485.422V127.298H493.881V132.078H485.422V147.977C485.422 149.498 485.798 150.626 486.55 151.36C487.32 152.076 488.322 152.435 489.558 152.435ZM511.203 152.435C512.743 152.435 514.283 152.193 515.822 151.709V156.463C515.124 156.767 514.22 157.018 513.11 157.215C512.018 157.43 510.881 157.537 509.699 157.537C503.719 157.537 500.729 154.386 500.729 148.084V132.078H496.674V129.285L501.025 126.976L503.173 120.691H507.067V127.298H515.527V132.078H507.067V147.977C507.067 149.498 507.443 150.626 508.195 151.36C508.965 152.076 509.968 152.435 511.203 152.435ZM528.095 157H521.784V127.298H528.095V157ZM521.408 119.429C521.408 118.301 521.713 117.433 522.321 116.824C522.948 116.215 523.834 115.911 524.98 115.911C526.09 115.911 526.949 116.215 527.558 116.824C528.185 117.433 528.498 118.301 528.498 119.429C528.498 120.503 528.185 121.354 527.558 121.98C526.949 122.589 526.09 122.894 524.98 122.894C523.834 122.894 522.948 122.589 522.321 121.98C521.713 121.354 521.408 120.503 521.408 119.429ZM563.276 157H556.938V138.738C556.938 136.447 556.472 134.737 555.542 133.609C554.628 132.481 553.169 131.917 551.164 131.917C548.496 131.917 546.545 132.705 545.31 134.28C544.074 135.856 543.457 138.497 543.457 142.203V157H537.146V127.298H542.087L542.973 131.192H543.295C544.191 129.778 545.462 128.685 547.109 127.916C548.756 127.146 550.582 126.761 552.587 126.761C559.713 126.761 563.276 130.386 563.276 137.637V157ZM597.141 127.298V130.762L592.065 131.702C592.53 132.329 592.915 133.099 593.22 134.012C593.524 134.925 593.676 135.892 593.676 136.912C593.676 139.974 592.62 142.382 590.507 144.136C588.395 145.891 585.485 146.768 581.779 146.768C580.83 146.768 579.971 146.696 579.201 146.553C577.84 147.395 577.16 148.379 577.16 149.507C577.16 150.188 577.473 150.698 578.1 151.038C578.745 151.378 579.917 151.548 581.618 151.548H586.801C590.078 151.548 592.566 152.247 594.267 153.643C595.968 155.04 596.818 157.054 596.818 159.686C596.818 163.051 595.431 165.647 592.656 167.474C589.881 169.3 585.87 170.213 580.625 170.213C576.578 170.213 573.49 169.497 571.359 168.064C569.229 166.632 568.164 164.591 568.164 161.941C568.164 160.115 568.736 158.576 569.882 157.322C571.046 156.087 572.666 155.228 574.743 154.744C573.902 154.386 573.203 153.813 572.648 153.025C572.111 152.22 571.843 151.378 571.843 150.501C571.843 149.391 572.156 148.451 572.783 147.681C573.409 146.911 574.34 146.15 575.576 145.398C574.036 144.736 572.783 143.662 571.816 142.176C570.867 140.672 570.393 138.917 570.393 136.912C570.393 133.689 571.404 131.192 573.427 129.419C575.468 127.647 578.369 126.761 582.128 126.761C582.97 126.761 583.847 126.823 584.76 126.949C585.691 127.056 586.389 127.173 586.855 127.298H597.141ZM573.803 161.619C573.803 162.98 574.412 164.027 575.629 164.761C576.865 165.495 578.592 165.862 580.812 165.862C584.25 165.862 586.81 165.37 588.493 164.385C590.176 163.401 591.018 162.094 591.018 160.464C591.018 159.175 590.552 158.253 589.621 157.698C588.708 157.161 586.998 156.893 584.492 156.893H579.711C577.903 156.893 576.462 157.313 575.388 158.155C574.331 159.014 573.803 160.169 573.803 161.619ZM576.516 136.912C576.516 138.774 576.99 140.206 577.939 141.209C578.906 142.212 580.284 142.713 582.075 142.713C585.727 142.713 587.553 140.761 587.553 136.858C587.553 134.925 587.097 133.439 586.184 132.4C585.288 131.344 583.919 130.816 582.075 130.816C580.249 130.816 578.861 131.335 577.912 132.374C576.981 133.412 576.516 134.925 576.516 136.912ZM622.626 148.541C622.626 151.441 621.57 153.67 619.458 155.228C617.345 156.767 614.319 157.537 610.38 157.537C606.424 157.537 603.246 156.937 600.847 155.738V150.286C604.338 151.897 607.587 152.703 610.595 152.703C614.48 152.703 616.423 151.53 616.423 149.185C616.423 148.433 616.208 147.806 615.778 147.305C615.349 146.804 614.641 146.285 613.657 145.748C612.672 145.21 611.302 144.602 609.548 143.921C606.128 142.597 603.81 141.272 602.592 139.947C601.393 138.622 600.793 136.903 600.793 134.791C600.793 132.248 601.813 130.279 603.854 128.882C605.913 127.468 608.706 126.761 612.233 126.761C615.725 126.761 619.028 127.468 622.143 128.882L620.102 133.636C616.897 132.311 614.203 131.648 612.019 131.648C608.688 131.648 607.023 132.597 607.023 134.495C607.023 135.426 607.453 136.214 608.312 136.858C609.19 137.503 611.088 138.389 614.006 139.517C616.459 140.466 618.24 141.334 619.35 142.122C620.46 142.91 621.284 143.823 621.821 144.861C622.358 145.882 622.626 147.108 622.626 148.541Z" fill="white"/>
<line x1="-2" y1="522.5" x2="1174" y2="522.5" stroke="#DBDBDB" stroke-width="5"/>
<path d="M222.211 403.094C222.211 406.672 221.039 409.414 218.695 411.32C216.352 413.227 213.016 414.18 208.688 414.18H205.125V427H199.523V392.734H209.391C213.672 392.734 216.875 393.609 219 395.359C221.141 397.109 222.211 399.688 222.211 403.094ZM205.125 409.469H208.102C210.977 409.469 213.086 408.969 214.43 407.969C215.773 406.969 216.445 405.406 216.445 403.281C216.445 401.312 215.844 399.844 214.641 398.875C213.438 397.906 211.562 397.422 209.016 397.422H205.125V409.469ZM240.891 427H235.289V397.539H225.211V392.734H250.969V397.539H240.891V427ZM288.094 427H268.711V392.734H288.094V397.469H274.312V406.797H287.227V411.484H274.312V422.242H288.094V427ZM300.844 427L291 401.078H296.812L302.086 416.148C302.992 418.68 303.539 420.727 303.727 422.289H303.914C304.055 421.164 304.602 419.117 305.555 416.148L310.828 401.078H316.688L306.797 427H300.844ZM331.945 427.469C327.914 427.469 324.758 426.297 322.477 423.953C320.211 421.594 319.078 418.352 319.078 414.227C319.078 409.992 320.133 406.664 322.242 404.242C324.352 401.82 327.25 400.609 330.938 400.609C334.359 400.609 337.062 401.648 339.047 403.727C341.031 405.805 342.023 408.664 342.023 412.305V415.281H324.75C324.828 417.797 325.508 419.734 326.789 421.094C328.07 422.438 329.875 423.109 332.203 423.109C333.734 423.109 335.156 422.969 336.469 422.688C337.797 422.391 339.219 421.906 340.734 421.234V425.711C339.391 426.352 338.031 426.805 336.656 427.07C335.281 427.336 333.711 427.469 331.945 427.469ZM330.938 404.781C329.188 404.781 327.781 405.336 326.719 406.445C325.672 407.555 325.047 409.172 324.844 411.297H336.609C336.578 409.156 336.062 407.539 335.062 406.445C334.062 405.336 332.688 404.781 330.938 404.781ZM371.086 427H365.555V411.062C365.555 409.062 365.148 407.57 364.336 406.586C363.539 405.602 362.266 405.109 360.516 405.109C358.188 405.109 356.484 405.797 355.406 407.172C354.328 408.547 353.789 410.852 353.789 414.086V427H348.281V401.078H352.594L353.367 404.477H353.648C354.43 403.242 355.539 402.289 356.977 401.617C358.414 400.945 360.008 400.609 361.758 400.609C367.977 400.609 371.086 403.773 371.086 410.102V427ZM388.406 423.016C389.75 423.016 391.094 422.805 392.438 422.383V426.531C391.828 426.797 391.039 427.016 390.07 427.188C389.117 427.375 388.125 427.469 387.094 427.469C381.875 427.469 379.266 424.719 379.266 419.219V405.25H375.727V402.812L379.523 400.797L381.398 395.312H384.797V401.078H392.18V405.25H384.797V419.125C384.797 420.453 385.125 421.438 385.781 422.078C386.453 422.703 387.328 423.016 388.406 423.016ZM441.117 409.82C441.117 415.398 439.719 419.734 436.922 422.828C434.141 425.922 430.195 427.469 425.086 427.469C419.914 427.469 415.938 425.938 413.156 422.875C410.391 419.797 409.008 415.43 409.008 409.773C409.008 404.117 410.398 399.773 413.18 396.742C415.977 393.711 419.961 392.195 425.133 392.195C430.227 392.195 434.164 393.734 436.945 396.812C439.727 399.891 441.117 404.227 441.117 409.82ZM414.961 409.82C414.961 414.039 415.812 417.242 417.516 419.43C419.219 421.602 421.742 422.688 425.086 422.688C428.414 422.688 430.922 421.609 432.609 419.453C434.312 417.297 435.164 414.086 435.164 409.82C435.164 405.617 434.32 402.43 432.633 400.258C430.961 398.086 428.461 397 425.133 397C421.773 397 419.234 398.086 417.516 400.258C415.812 402.43 414.961 405.617 414.961 409.82ZM461.039 427.469C457.758 427.469 455.211 426.289 453.398 423.93H453.07C453.289 426.117 453.398 427.445 453.398 427.914V438.531H447.891V401.078H452.344C452.469 401.562 452.727 402.719 453.117 404.547H453.398C455.117 401.922 457.695 400.609 461.133 400.609C464.367 400.609 466.883 401.781 468.68 404.125C470.492 406.469 471.398 409.758 471.398 413.992C471.398 418.227 470.477 421.531 468.633 423.906C466.805 426.281 464.273 427.469 461.039 427.469ZM459.703 405.109C457.516 405.109 455.914 405.75 454.898 407.031C453.898 408.312 453.398 410.359 453.398 413.172V413.992C453.398 417.148 453.898 419.438 454.898 420.859C455.898 422.266 457.531 422.969 459.797 422.969C461.703 422.969 463.172 422.188 464.203 420.625C465.234 419.062 465.75 416.836 465.75 413.945C465.75 411.039 465.234 408.844 464.203 407.359C463.188 405.859 461.688 405.109 459.703 405.109ZM489.117 427.469C485.086 427.469 481.93 426.297 479.648 423.953C477.383 421.594 476.25 418.352 476.25 414.227C476.25 409.992 477.305 406.664 479.414 404.242C481.523 401.82 484.422 400.609 488.109 400.609C491.531 400.609 494.234 401.648 496.219 403.727C498.203 405.805 499.195 408.664 499.195 412.305V415.281H481.922C482 417.797 482.68 419.734 483.961 421.094C485.242 422.438 487.047 423.109 489.375 423.109C490.906 423.109 492.328 422.969 493.641 422.688C494.969 422.391 496.391 421.906 497.906 421.234V425.711C496.562 426.352 495.203 426.805 493.828 427.07C492.453 427.336 490.883 427.469 489.117 427.469ZM488.109 404.781C486.359 404.781 484.953 405.336 483.891 406.445C482.844 407.555 482.219 409.172 482.016 411.297H493.781C493.75 409.156 493.234 407.539 492.234 406.445C491.234 405.336 489.859 404.781 488.109 404.781ZM518.602 400.609C519.711 400.609 520.625 400.688 521.344 400.844L520.805 405.977C520.023 405.789 519.211 405.695 518.367 405.695C516.164 405.695 514.375 406.414 513 407.852C511.641 409.289 510.961 411.156 510.961 413.453V427H505.453V401.078H509.766L510.492 405.648H510.773C511.633 404.102 512.75 402.875 514.125 401.969C515.516 401.062 517.008 400.609 518.602 400.609ZM542.391 427L541.289 423.391H541.102C539.852 424.969 538.594 426.047 537.328 426.625C536.062 427.188 534.438 427.469 532.453 427.469C529.906 427.469 527.914 426.781 526.477 425.406C525.055 424.031 524.344 422.086 524.344 419.57C524.344 416.898 525.336 414.883 527.32 413.523C529.305 412.164 532.328 411.422 536.391 411.297L540.867 411.156V409.773C540.867 408.117 540.477 406.883 539.695 406.07C538.93 405.242 537.734 404.828 536.109 404.828C534.781 404.828 533.508 405.023 532.289 405.414C531.07 405.805 529.898 406.266 528.773 406.797L526.992 402.859C528.398 402.125 529.938 401.57 531.609 401.195C533.281 400.805 534.859 400.609 536.344 400.609C539.641 400.609 542.125 401.328 543.797 402.766C545.484 404.203 546.328 406.461 546.328 409.539V427H542.391ZM534.188 423.25C536.188 423.25 537.789 422.695 538.992 421.586C540.211 420.461 540.82 418.891 540.82 416.875V414.625L537.492 414.766C534.898 414.859 533.008 415.297 531.82 416.078C530.648 416.844 530.062 418.023 530.062 419.617C530.062 420.773 530.406 421.672 531.094 422.312C531.781 422.938 532.812 423.25 534.188 423.25ZM563.672 423.016C565.016 423.016 566.359 422.805 567.703 422.383V426.531C567.094 426.797 566.305 427.016 565.336 427.188C564.383 427.375 563.391 427.469 562.359 427.469C557.141 427.469 554.531 424.719 554.531 419.219V405.25H550.992V402.812L554.789 400.797L556.664 395.312H560.062V401.078H567.445V405.25H560.062V419.125C560.062 420.453 560.391 421.438 561.047 422.078C561.719 422.703 562.594 423.016 563.672 423.016ZM578.414 427H572.906V401.078H578.414V427ZM572.578 394.211C572.578 393.227 572.844 392.469 573.375 391.938C573.922 391.406 574.695 391.141 575.695 391.141C576.664 391.141 577.414 391.406 577.945 391.938C578.492 392.469 578.766 393.227 578.766 394.211C578.766 395.148 578.492 395.891 577.945 396.438C577.414 396.969 576.664 397.234 575.695 397.234C574.695 397.234 573.922 396.969 573.375 396.438C572.844 395.891 572.578 395.148 572.578 394.211ZM609.305 413.992C609.305 418.227 608.219 421.531 606.047 423.906C603.875 426.281 600.852 427.469 596.977 427.469C594.555 427.469 592.414 426.922 590.555 425.828C588.695 424.734 587.266 423.164 586.266 421.117C585.266 419.07 584.766 416.695 584.766 413.992C584.766 409.789 585.844 406.508 588 404.148C590.156 401.789 593.195 400.609 597.117 400.609C600.867 400.609 603.836 401.82 606.023 404.242C608.211 406.648 609.305 409.898 609.305 413.992ZM590.438 413.992C590.438 419.977 592.648 422.969 597.07 422.969C601.445 422.969 603.633 419.977 603.633 413.992C603.633 408.07 601.43 405.109 597.023 405.109C594.711 405.109 593.031 405.875 591.984 407.406C590.953 408.938 590.438 411.133 590.438 413.992ZM638.461 427H632.93V411.062C632.93 409.062 632.523 407.57 631.711 406.586C630.914 405.602 629.641 405.109 627.891 405.109C625.562 405.109 623.859 405.797 622.781 407.172C621.703 408.547 621.164 410.852 621.164 414.086V427H615.656V401.078H619.969L620.742 404.477H621.023C621.805 403.242 622.914 402.289 624.352 401.617C625.789 400.945 627.383 400.609 629.133 400.609C635.352 400.609 638.461 403.773 638.461 410.102V427ZM663.539 419.617C663.539 422.148 662.617 424.094 660.773 425.453C658.93 426.797 656.289 427.469 652.852 427.469C649.398 427.469 646.625 426.945 644.531 425.898V421.141C647.578 422.547 650.414 423.25 653.039 423.25C656.43 423.25 658.125 422.227 658.125 420.18C658.125 419.523 657.938 418.977 657.562 418.539C657.188 418.102 656.57 417.648 655.711 417.18C654.852 416.711 653.656 416.18 652.125 415.586C649.141 414.43 647.117 413.273 646.055 412.117C645.008 410.961 644.484 409.461 644.484 407.617C644.484 405.398 645.375 403.68 647.156 402.461C648.953 401.227 651.391 400.609 654.469 400.609C657.516 400.609 660.398 401.227 663.117 402.461L661.336 406.609C658.539 405.453 656.188 404.875 654.281 404.875C651.375 404.875 649.922 405.703 649.922 407.359C649.922 408.172 650.297 408.859 651.047 409.422C651.812 409.984 653.469 410.758 656.016 411.742C658.156 412.57 659.711 413.328 660.68 414.016C661.648 414.703 662.367 415.5 662.836 416.406C663.305 417.297 663.539 418.367 663.539 419.617Z" fill="black"/>
<path d="M209.15 466.467C207.1 466.467 205.512 467.24 204.387 468.787C203.262 470.322 202.699 472.467 202.699 475.221C202.699 480.951 204.85 483.816 209.15 483.816C210.955 483.816 213.141 483.365 215.707 482.463V487.033C213.598 487.912 211.242 488.352 208.641 488.352C204.902 488.352 202.043 487.221 200.062 484.959C198.082 482.686 197.092 479.428 197.092 475.186C197.092 472.514 197.578 470.176 198.551 468.172C199.523 466.156 200.918 464.615 202.734 463.549C204.562 462.471 206.701 461.932 209.15 461.932C211.646 461.932 214.154 462.535 216.674 463.742L214.916 468.172C213.955 467.715 212.988 467.316 212.016 466.977C211.043 466.637 210.088 466.467 209.15 466.467ZM225.041 478.139C225.041 480.084 225.357 481.555 225.99 482.551C226.635 483.547 227.678 484.045 229.119 484.045C230.549 484.045 231.574 483.553 232.195 482.568C232.828 481.572 233.145 480.096 233.145 478.139C233.145 476.193 232.828 474.734 232.195 473.762C231.562 472.789 230.525 472.303 229.084 472.303C227.654 472.303 226.623 472.789 225.99 473.762C225.357 474.723 225.041 476.182 225.041 478.139ZM238.629 478.139C238.629 481.338 237.785 483.84 236.098 485.645C234.41 487.449 232.061 488.352 229.049 488.352C227.162 488.352 225.498 487.941 224.057 487.121C222.615 486.289 221.508 485.1 220.734 483.553C219.961 482.006 219.574 480.201 219.574 478.139C219.574 474.928 220.412 472.432 222.088 470.65C223.764 468.869 226.119 467.979 229.154 467.979C231.041 467.979 232.705 468.389 234.146 469.209C235.588 470.029 236.695 471.207 237.469 472.742C238.242 474.277 238.629 476.076 238.629 478.139ZM261.199 488H255.838V476.521C255.838 475.104 255.586 474.043 255.082 473.34C254.578 472.625 253.775 472.268 252.674 472.268C251.174 472.268 250.09 472.771 249.422 473.779C248.754 474.775 248.42 476.434 248.42 478.754V488H243.059V468.348H247.154L247.875 470.861H248.174C248.771 469.912 249.592 469.197 250.635 468.717C251.689 468.225 252.885 467.979 254.221 467.979C256.506 467.979 258.24 468.6 259.424 469.842C260.607 471.072 261.199 472.854 261.199 475.186V488ZM284.859 488H279.498V476.521C279.498 475.104 279.246 474.043 278.742 473.34C278.238 472.625 277.436 472.268 276.334 472.268C274.834 472.268 273.75 472.771 273.082 473.779C272.414 474.775 272.08 476.434 272.08 478.754V488H266.719V468.348H270.814L271.535 470.861H271.834C272.432 469.912 273.252 469.197 274.295 468.717C275.35 468.225 276.545 467.979 277.881 467.979C280.166 467.979 281.9 468.6 283.084 469.842C284.268 471.072 284.859 472.854 284.859 475.186V488ZM298.518 471.793C297.381 471.793 296.49 472.156 295.846 472.883C295.201 473.598 294.832 474.617 294.738 475.941H302.262C302.238 474.617 301.893 473.598 301.225 472.883C300.557 472.156 299.654 471.793 298.518 471.793ZM299.273 488.352C296.109 488.352 293.637 487.479 291.855 485.732C290.074 483.986 289.184 481.514 289.184 478.314C289.184 475.021 290.004 472.479 291.645 470.686C293.297 468.881 295.576 467.979 298.482 467.979C301.26 467.979 303.422 468.77 304.969 470.352C306.516 471.934 307.289 474.119 307.289 476.908V479.51H294.615C294.674 481.033 295.125 482.223 295.969 483.078C296.812 483.934 297.996 484.361 299.52 484.361C300.703 484.361 301.822 484.238 302.877 483.992C303.932 483.746 305.033 483.354 306.182 482.814V486.963C305.244 487.432 304.242 487.777 303.176 488C302.109 488.234 300.809 488.352 299.273 488.352ZM319.629 488.352C313.512 488.352 310.453 484.994 310.453 478.279C310.453 474.939 311.285 472.391 312.949 470.633C314.613 468.863 316.998 467.979 320.104 467.979C322.377 467.979 324.416 468.424 326.221 469.314L324.639 473.463C323.795 473.123 323.01 472.848 322.283 472.637C321.557 472.414 320.83 472.303 320.104 472.303C317.314 472.303 315.92 474.283 315.92 478.244C315.92 482.088 317.314 484.01 320.104 484.01C321.135 484.01 322.09 483.875 322.969 483.605C323.848 483.324 324.727 482.891 325.605 482.305V486.893C324.738 487.443 323.859 487.824 322.969 488.035C322.09 488.246 320.977 488.352 319.629 488.352ZM338.455 484.08C339.393 484.08 340.518 483.875 341.83 483.465V487.455C340.494 488.053 338.854 488.352 336.908 488.352C334.764 488.352 333.199 487.812 332.215 486.734C331.242 485.645 330.756 484.016 330.756 481.848V472.373H328.189V470.105L331.143 468.312L332.689 464.164H336.117V468.348H341.619V472.373H336.117V481.848C336.117 482.609 336.328 483.172 336.75 483.535C337.184 483.898 337.752 484.08 338.455 484.08ZM353.959 471.793C352.822 471.793 351.932 472.156 351.287 472.883C350.643 473.598 350.273 474.617 350.18 475.941H357.703C357.68 474.617 357.334 473.598 356.666 472.883C355.998 472.156 355.096 471.793 353.959 471.793ZM354.715 488.352C351.551 488.352 349.078 487.479 347.297 485.732C345.516 483.986 344.625 481.514 344.625 478.314C344.625 475.021 345.445 472.479 347.086 470.686C348.738 468.881 351.018 467.979 353.924 467.979C356.701 467.979 358.863 468.77 360.41 470.352C361.957 471.934 362.73 474.119 362.73 476.908V479.51H350.057C350.115 481.033 350.566 482.223 351.41 483.078C352.254 483.934 353.438 484.361 354.961 484.361C356.145 484.361 357.264 484.238 358.318 483.992C359.373 483.746 360.475 483.354 361.623 482.814V486.963C360.686 487.432 359.684 487.777 358.617 488C357.551 488.234 356.25 488.352 354.715 488.352ZM373.312 488.352C371.004 488.352 369.188 487.455 367.863 485.662C366.551 483.869 365.895 481.385 365.895 478.209C365.895 474.986 366.562 472.479 367.898 470.686C369.246 468.881 371.098 467.979 373.453 467.979C375.926 467.979 377.812 468.939 379.113 470.861H379.289C379.02 469.396 378.885 468.09 378.885 466.941V460.648H384.264V488H380.15L379.113 485.451H378.885C377.666 487.385 375.809 488.352 373.312 488.352ZM375.193 484.08C376.564 484.08 377.566 483.682 378.199 482.885C378.844 482.088 379.195 480.734 379.254 478.824V478.244C379.254 476.135 378.926 474.623 378.27 473.709C377.625 472.795 376.57 472.338 375.105 472.338C373.91 472.338 372.979 472.848 372.311 473.867C371.654 474.875 371.326 476.346 371.326 478.279C371.326 480.213 371.66 481.666 372.328 482.639C372.996 483.6 373.951 484.08 375.193 484.08Z" fill="#959191"/>
<path d="M110.953 443.132C109.99 443.132 109.042 442.677 108.305 441.766C98.1972 429.279 81.7749 429.279 71.6667 441.766C70.2085 443.57 67.8301 443.57 66.372 441.766C64.9138 439.962 64.9138 437.02 66.372 435.216C79.3965 419.104 100.576 419.104 113.6 435.216C115.058 437.02 115.058 439.962 113.6 441.766C112.864 442.677 111.901 443.132 110.953 443.132Z" fill="#26B6E8"/>
<path d="M109.083 441.138L109.083 441.137C103.857 434.681 96.9478 431.401 89.9861 431.401C83.0244 431.401 76.1156 434.681 70.8895 441.137L70.889 441.138C70.3325 441.826 69.65 442.119 69.0193 442.119C68.3887 442.119 67.7062 441.826 67.1496 441.138L66.3804 441.759L67.1496 441.138C65.9879 439.7 65.9879 437.282 67.1496 435.845C73.49 428.002 81.7645 424.132 89.9861 424.132C98.2076 424.132 106.482 428.002 112.823 435.845C113.984 437.282 113.984 439.7 112.823 441.138C112.256 441.839 111.568 442.132 110.953 442.132C110.326 442.132 109.652 441.841 109.083 441.138Z" stroke="black" stroke-opacity="0.5" stroke-width="2"/>
<path d="M100.816 452C99.8528 452 98.9043 451.57 98.1681 450.709C95.9879 448.161 93.0716 446.754 89.9853 446.754C86.899 446.754 83.9827 448.161 81.8025 450.709C80.3443 452.414 77.9659 452.414 76.5077 450.709C75.0495 449.005 75.0495 446.225 76.5077 444.52C80.1036 440.317 84.8887 438 89.9853 438C95.0819 438 99.867 440.317 103.463 444.537C104.921 446.241 104.921 449.021 103.463 450.726C102.741 451.57 101.778 452 100.816 452Z" fill="#26B6E8"/>
<path d="M102.702 445.185L102.703 445.187C103.841 446.517 103.841 448.745 102.703 450.076C102.162 450.708 101.472 451 100.816 451C100.167 451 99.4886 450.714 98.928 450.059C96.5758 447.31 93.3904 445.754 89.9853 445.754C86.5802 445.754 83.3948 447.31 81.0426 450.059C79.9836 451.297 78.3266 451.297 77.2676 450.059C76.1296 448.729 76.1296 446.5 77.2676 445.17C80.6921 441.167 85.2084 439 89.9853 439C94.7618 439 99.2775 441.167 102.702 445.185Z" stroke="black" stroke-opacity="0.5" stroke-width="2"/>
<path d="M89.9858 463C92.7458 463 94.9832 460.676 94.9832 457.809C94.9832 454.942 92.7458 452.618 89.9858 452.618C87.2257 452.618 84.9883 454.942 84.9883 457.809C84.9883 460.676 87.2257 463 89.9858 463Z" fill="#26B6E8"/>
<path d="M93.9832 457.809C93.9832 460.16 92.158 462 89.9858 462C87.8135 462 85.9883 460.16 85.9883 457.809C85.9883 455.458 87.8135 453.618 89.9858 453.618C92.158 453.618 93.9832 455.458 93.9832 457.809Z" stroke="black" stroke-opacity="0.5" stroke-width="2"/>
<path d="M121.245 433C120.282 433 119.334 432.55 118.597 431.65C102.812 412.363 77.1595 412.363 61.3884 431.65C59.9302 433.433 57.5518 433.433 56.0936 431.65C54.6355 429.866 54.6355 426.958 56.0936 425.175C65.1542 414.094 77.1878 408 90 408C102.812 408 114.846 414.094 123.906 425.175C125.365 426.958 125.365 429.866 123.906 431.65C123.156 432.55 122.193 433 121.245 433Z" fill="#26B6E8"/>
<path d="M119.372 431.017L119.371 431.016C111.305 421.161 100.67 416.185 89.9876 416.185C79.3052 416.185 68.6735 421.161 60.6143 431.017C60.0594 431.695 59.3762 431.987 58.741 431.987C58.1059 431.987 57.4226 431.695 56.8678 431.017C55.7107 429.602 55.7107 427.222 56.8678 425.808C65.7635 414.929 77.5254 409 90 409C102.475 409 114.236 414.929 123.132 425.808C124.288 427.221 124.289 429.597 123.135 431.013C122.553 431.709 121.862 432 121.245 432C120.613 432 119.938 431.71 119.372 431.017Z" stroke="black" stroke-opacity="0.5" stroke-width="2"/>
<line x1="-2" y1="697.5" x2="1174" y2="697.5" stroke="#DBDBDB" stroke-width="5"/>
<path d="M218.906 602H199.523V567.734H218.906V572.469H205.125V581.797H218.039V586.484H205.125V597.242H218.906V602ZM231.656 602L221.812 576.078H227.625L232.898 591.148C233.805 593.68 234.352 595.727 234.539 597.289H234.727C234.867 596.164 235.414 594.117 236.367 591.148L241.641 576.078H247.5L237.609 602H231.656ZM262.758 602.469C258.727 602.469 255.57 601.297 253.289 598.953C251.023 596.594 249.891 593.352 249.891 589.227C249.891 584.992 250.945 581.664 253.055 579.242C255.164 576.82 258.062 575.609 261.75 575.609C265.172 575.609 267.875 576.648 269.859 578.727C271.844 580.805 272.836 583.664 272.836 587.305V590.281H255.562C255.641 592.797 256.32 594.734 257.602 596.094C258.883 597.438 260.688 598.109 263.016 598.109C264.547 598.109 265.969 597.969 267.281 597.688C268.609 597.391 270.031 596.906 271.547 596.234V600.711C270.203 601.352 268.844 601.805 267.469 602.07C266.094 602.336 264.523 602.469 262.758 602.469ZM261.75 579.781C260 579.781 258.594 580.336 257.531 581.445C256.484 582.555 255.859 584.172 255.656 586.297H267.422C267.391 584.156 266.875 582.539 265.875 581.445C264.875 580.336 263.5 579.781 261.75 579.781ZM301.898 602H296.367V586.062C296.367 584.062 295.961 582.57 295.148 581.586C294.352 580.602 293.078 580.109 291.328 580.109C289 580.109 287.297 580.797 286.219 582.172C285.141 583.547 284.602 585.852 284.602 589.086V602H279.094V576.078H283.406L284.18 579.477H284.461C285.242 578.242 286.352 577.289 287.789 576.617C289.227 575.945 290.82 575.609 292.57 575.609C298.789 575.609 301.898 578.773 301.898 585.102V602ZM319.219 598.016C320.562 598.016 321.906 597.805 323.25 597.383V601.531C322.641 601.797 321.852 602.016 320.883 602.188C319.93 602.375 318.938 602.469 317.906 602.469C312.688 602.469 310.078 599.719 310.078 594.219V580.25H306.539V577.812L310.336 575.797L312.211 570.312H315.609V576.078H322.992V580.25H315.609V594.125C315.609 595.453 315.938 596.438 316.594 597.078C317.266 597.703 318.141 598.016 319.219 598.016ZM373.125 602H367.031L361.219 581.562C360.969 580.672 360.656 579.391 360.281 577.719C359.906 576.031 359.68 574.859 359.602 574.203C359.445 575.203 359.188 576.5 358.828 578.094C358.484 579.688 358.195 580.875 357.961 581.656L352.289 602H346.195L341.766 584.844L337.266 567.734H342.984L347.883 587.703C348.648 590.906 349.195 593.734 349.523 596.188C349.695 594.859 349.953 593.375 350.297 591.734C350.641 590.094 350.953 588.766 351.234 587.75L356.812 567.734H362.367L368.086 587.844C368.633 589.703 369.211 592.484 369.82 596.188C370.055 593.953 370.617 591.109 371.508 587.656L376.383 567.734H382.055L373.125 602ZM391.852 602H386.344V576.078H391.852V602ZM386.016 569.211C386.016 568.227 386.281 567.469 386.812 566.938C387.359 566.406 388.133 566.141 389.133 566.141C390.102 566.141 390.852 566.406 391.383 566.938C391.93 567.469 392.203 568.227 392.203 569.211C392.203 570.148 391.93 570.891 391.383 571.438C390.852 571.969 390.102 572.234 389.133 572.234C388.133 572.234 387.359 571.969 386.812 571.438C386.281 570.891 386.016 570.148 386.016 569.211ZM412.898 575.609C414.008 575.609 414.922 575.688 415.641 575.844L415.102 580.977C414.32 580.789 413.508 580.695 412.664 580.695C410.461 580.695 408.672 581.414 407.297 582.852C405.938 584.289 405.258 586.156 405.258 588.453V602H399.75V576.078H404.062L404.789 580.648H405.07C405.93 579.102 407.047 577.875 408.422 576.969C409.812 576.062 411.305 575.609 412.898 575.609ZM431.789 602.469C427.758 602.469 424.602 601.297 422.32 598.953C420.055 596.594 418.922 593.352 418.922 589.227C418.922 584.992 419.977 581.664 422.086 579.242C424.195 576.82 427.094 575.609 430.781 575.609C434.203 575.609 436.906 576.648 438.891 578.727C440.875 580.805 441.867 583.664 441.867 587.305V590.281H424.594C424.672 592.797 425.352 594.734 426.633 596.094C427.914 597.438 429.719 598.109 432.047 598.109C433.578 598.109 435 597.969 436.312 597.688C437.641 597.391 439.062 596.906 440.578 596.234V600.711C439.234 601.352 437.875 601.805 436.5 602.07C435.125 602.336 433.555 602.469 431.789 602.469ZM430.781 579.781C429.031 579.781 427.625 580.336 426.562 581.445C425.516 582.555 424.891 584.172 424.688 586.297H436.453C436.422 584.156 435.906 582.539 434.906 581.445C433.906 580.336 432.531 579.781 430.781 579.781ZM453.633 602H448.125V565.531H453.633V602ZM472.852 602.469C468.82 602.469 465.664 601.297 463.383 598.953C461.117 596.594 459.984 593.352 459.984 589.227C459.984 584.992 461.039 581.664 463.148 579.242C465.258 576.82 468.156 575.609 471.844 575.609C475.266 575.609 477.969 576.648 479.953 578.727C481.938 580.805 482.93 583.664 482.93 587.305V590.281H465.656C465.734 592.797 466.414 594.734 467.695 596.094C468.977 597.438 470.781 598.109 473.109 598.109C474.641 598.109 476.062 597.969 477.375 597.688C478.703 597.391 480.125 596.906 481.641 596.234V600.711C480.297 601.352 478.938 601.805 477.562 602.07C476.188 602.336 474.617 602.469 472.852 602.469ZM471.844 579.781C470.094 579.781 468.688 580.336 467.625 581.445C466.578 582.555 465.953 584.172 465.75 586.297H477.516C477.484 584.156 476.969 582.539 475.969 581.445C474.969 580.336 473.594 579.781 471.844 579.781ZM506.602 594.617C506.602 597.148 505.68 599.094 503.836 600.453C501.992 601.797 499.352 602.469 495.914 602.469C492.461 602.469 489.688 601.945 487.594 600.898V596.141C490.641 597.547 493.477 598.25 496.102 598.25C499.492 598.25 501.188 597.227 501.188 595.18C501.188 594.523 501 593.977 500.625 593.539C500.25 593.102 499.633 592.648 498.773 592.18C497.914 591.711 496.719 591.18 495.188 590.586C492.203 589.43 490.18 588.273 489.117 587.117C488.07 585.961 487.547 584.461 487.547 582.617C487.547 580.398 488.438 578.68 490.219 577.461C492.016 576.227 494.453 575.609 497.531 575.609C500.578 575.609 503.461 576.227 506.18 577.461L504.398 581.609C501.602 580.453 499.25 579.875 497.344 579.875C494.438 579.875 492.984 580.703 492.984 582.359C492.984 583.172 493.359 583.859 494.109 584.422C494.875 584.984 496.531 585.758 499.078 586.742C501.219 587.57 502.773 588.328 503.742 589.016C504.711 589.703 505.43 590.5 505.898 591.406C506.367 592.297 506.602 593.367 506.602 594.617ZM529.992 594.617C529.992 597.148 529.07 599.094 527.227 600.453C525.383 601.797 522.742 602.469 519.305 602.469C515.852 602.469 513.078 601.945 510.984 600.898V596.141C514.031 597.547 516.867 598.25 519.492 598.25C522.883 598.25 524.578 597.227 524.578 595.18C524.578 594.523 524.391 593.977 524.016 593.539C523.641 593.102 523.023 592.648 522.164 592.18C521.305 591.711 520.109 591.18 518.578 590.586C515.594 589.43 513.57 588.273 512.508 587.117C511.461 585.961 510.938 584.461 510.938 582.617C510.938 580.398 511.828 578.68 513.609 577.461C515.406 576.227 517.844 575.609 520.922 575.609C523.969 575.609 526.852 576.227 529.57 577.461L527.789 581.609C524.992 580.453 522.641 579.875 520.734 579.875C517.828 579.875 516.375 580.703 516.375 582.359C516.375 583.172 516.75 583.859 517.5 584.422C518.266 584.984 519.922 585.758 522.469 586.742C524.609 587.57 526.164 588.328 527.133 589.016C528.102 589.703 528.82 590.5 529.289 591.406C529.758 592.297 529.992 593.367 529.992 594.617Z" fill="black"/>
<path d="M213.404 655.863C213.404 658.184 212.566 660.012 210.891 661.348C209.227 662.684 206.906 663.352 203.93 663.352C201.188 663.352 198.762 662.836 196.652 661.805V656.742C198.387 657.516 199.852 658.061 201.047 658.377C202.254 658.693 203.355 658.852 204.352 658.852C205.547 658.852 206.461 658.623 207.094 658.166C207.738 657.709 208.061 657.029 208.061 656.127C208.061 655.623 207.92 655.178 207.639 654.791C207.357 654.393 206.941 654.012 206.391 653.648C205.852 653.285 204.744 652.705 203.068 651.908C201.498 651.17 200.32 650.461 199.535 649.781C198.75 649.102 198.123 648.311 197.654 647.408C197.186 646.506 196.951 645.451 196.951 644.244C196.951 641.971 197.719 640.184 199.254 638.883C200.801 637.582 202.934 636.932 205.652 636.932C206.988 636.932 208.26 637.09 209.467 637.406C210.686 637.723 211.957 638.168 213.281 638.742L211.523 642.979C210.152 642.416 209.016 642.023 208.113 641.801C207.223 641.578 206.344 641.467 205.477 641.467C204.445 641.467 203.654 641.707 203.104 642.188C202.553 642.668 202.277 643.295 202.277 644.068C202.277 644.549 202.389 644.971 202.611 645.334C202.834 645.686 203.186 646.031 203.666 646.371C204.158 646.699 205.312 647.297 207.129 648.164C209.531 649.312 211.178 650.467 212.068 651.627C212.959 652.775 213.404 654.188 213.404 655.863ZM225.779 646.793C224.643 646.793 223.752 647.156 223.107 647.883C222.463 648.598 222.094 649.617 222 650.941H229.523C229.5 649.617 229.154 648.598 228.486 647.883C227.818 647.156 226.916 646.793 225.779 646.793ZM226.535 663.352C223.371 663.352 220.898 662.479 219.117 660.732C217.336 658.986 216.445 656.514 216.445 653.314C216.445 650.021 217.266 647.479 218.906 645.686C220.559 643.881 222.838 642.979 225.744 642.979C228.521 642.979 230.684 643.77 232.23 645.352C233.777 646.934 234.551 649.119 234.551 651.908V654.51H221.877C221.936 656.033 222.387 657.223 223.23 658.078C224.074 658.934 225.258 659.361 226.781 659.361C227.965 659.361 229.084 659.238 230.139 658.992C231.193 658.746 232.295 658.354 233.443 657.814V661.963C232.506 662.432 231.504 662.777 230.438 663C229.371 663.234 228.07 663.352 226.535 663.352ZM246.891 663.352C240.773 663.352 237.715 659.994 237.715 653.279C237.715 649.939 238.547 647.391 240.211 645.633C241.875 643.863 244.26 642.979 247.365 642.979C249.639 642.979 251.678 643.424 253.482 644.314L251.9 648.463C251.057 648.123 250.271 647.848 249.545 647.637C248.818 647.414 248.092 647.303 247.365 647.303C244.576 647.303 243.182 649.283 243.182 653.244C243.182 657.088 244.576 659.01 247.365 659.01C248.396 659.01 249.352 658.875 250.23 658.605C251.109 658.324 251.988 657.891 252.867 657.305V661.893C252 662.443 251.121 662.824 250.23 663.035C249.352 663.246 248.238 663.352 246.891 663.352ZM271.359 663L270.639 660.486H270.357C269.783 661.4 268.969 662.109 267.914 662.613C266.859 663.105 265.658 663.352 264.311 663.352C262.002 663.352 260.262 662.736 259.09 661.506C257.918 660.264 257.332 658.482 257.332 656.162V643.348H262.693V654.826C262.693 656.244 262.945 657.311 263.449 658.025C263.953 658.729 264.756 659.08 265.857 659.08C267.357 659.08 268.441 658.582 269.109 657.586C269.777 656.578 270.111 654.914 270.111 652.594V643.348H275.473V663H271.359ZM292.066 642.979C292.793 642.979 293.396 643.031 293.877 643.137L293.473 648.164C293.039 648.047 292.512 647.988 291.891 647.988C290.18 647.988 288.844 648.428 287.883 649.307C286.934 650.186 286.459 651.416 286.459 652.998V663H281.098V643.348H285.158L285.949 646.652H286.213C286.822 645.551 287.643 644.666 288.674 643.998C289.717 643.318 290.848 642.979 292.066 642.979ZM305.584 646.793C304.447 646.793 303.557 647.156 302.912 647.883C302.268 648.598 301.898 649.617 301.805 650.941H309.328C309.305 649.617 308.959 648.598 308.291 647.883C307.623 647.156 306.721 646.793 305.584 646.793ZM306.34 663.352C303.176 663.352 300.703 662.479 298.922 660.732C297.141 658.986 296.25 656.514 296.25 653.314C296.25 650.021 297.07 647.479 298.711 645.686C300.363 643.881 302.643 642.979 305.549 642.979C308.326 642.979 310.488 643.77 312.035 645.352C313.582 646.934 314.355 649.119 314.355 651.908V654.51H301.682C301.74 656.033 302.191 657.223 303.035 658.078C303.879 658.934 305.062 659.361 306.586 659.361C307.77 659.361 308.889 659.238 309.943 658.992C310.998 658.746 312.1 658.354 313.248 657.814V661.963C312.311 662.432 311.309 662.777 310.242 663C309.176 663.234 307.875 663.352 306.34 663.352ZM324.938 663.352C322.629 663.352 320.812 662.455 319.488 660.662C318.176 658.869 317.52 656.385 317.52 653.209C317.52 649.986 318.188 647.479 319.523 645.686C320.871 643.881 322.723 642.979 325.078 642.979C327.551 642.979 329.438 643.939 330.738 645.861H330.914C330.645 644.396 330.51 643.09 330.51 641.941V635.648H335.889V663H331.775L330.738 660.451H330.51C329.291 662.385 327.434 663.352 324.938 663.352ZM326.818 659.08C328.189 659.08 329.191 658.682 329.824 657.885C330.469 657.088 330.82 655.734 330.879 653.824V653.244C330.879 651.135 330.551 649.623 329.895 648.709C329.25 647.795 328.195 647.338 326.73 647.338C325.535 647.338 324.604 647.848 323.936 648.867C323.279 649.875 322.951 651.346 322.951 653.279C322.951 655.213 323.285 656.666 323.953 657.639C324.621 658.6 325.576 659.08 326.818 659.08Z" fill="#959191"/>
<path d="M110.953 618.132C109.99 618.132 109.042 617.677 108.305 616.766C98.1972 604.279 81.7749 604.279 71.6667 616.766C70.2085 618.57 67.8301 618.57 66.372 616.766C64.9138 614.962 64.9138 612.02 66.372 610.216C79.3965 594.104 100.576 594.104 113.6 610.216C115.058 612.02 115.058 614.962 113.6 616.766C112.864 617.677 111.901 618.132 110.953 618.132Z" fill="#26B6E8"/>
<path d="M109.083 616.138L109.083 616.137C103.857 609.681 96.9478 606.401 89.9861 606.401C83.0244 606.401 76.1156 609.681 70.8895 616.137L70.889 616.138C70.3325 616.826 69.65 617.119 69.0193 617.119C68.3887 617.119 67.7062 616.826 67.1496 616.138L66.3804 616.759L67.1496 616.138C65.9879 614.7 65.9879 612.282 67.1496 610.845C73.49 603.002 81.7645 599.132 89.9861 599.132C98.2076 599.132 106.482 603.002 112.823 610.845C113.984 612.282 113.984 614.7 112.823 616.138C112.256 616.839 111.568 617.132 110.953 617.132C110.326 617.132 109.652 616.841 109.083 616.138Z" stroke="black" stroke-opacity="0.5" stroke-width="2"/>
<path d="M100.816 627C99.8528 627 98.9043 626.57 98.1681 625.709C95.9879 623.161 93.0716 621.754 89.9853 621.754C86.899 621.754 83.9827 623.161 81.8025 625.709C80.3443 627.414 77.9659 627.414 76.5077 625.709C75.0495 624.005 75.0495 621.225 76.5077 619.52C80.1036 615.317 84.8887 613 89.9853 613C95.0819 613 99.867 615.317 103.463 619.537C104.921 621.241 104.921 624.021 103.463 625.726C102.741 626.57 101.778 627 100.816 627Z" fill="#26B6E8"/>
<path d="M102.702 620.185L102.703 620.187C103.841 621.517 103.841 623.745 102.703 625.076C102.162 625.708 101.472 626 100.816 626C100.167 626 99.4886 625.714 98.928 625.059C96.5758 622.31 93.3904 620.754 89.9853 620.754C86.5802 620.754 83.3948 622.31 81.0426 625.059C79.9836 626.297 78.3266 626.297 77.2676 625.059C76.1296 623.729 76.1296 621.5 77.2676 620.17C80.6921 616.167 85.2084 614 89.9853 614C94.7618 614 99.2775 616.167 102.702 620.185Z" stroke="black" stroke-opacity="0.5" stroke-width="2"/>
<path d="M89.9858 638C92.7458 638 94.9832 635.676 94.9832 632.809C94.9832 629.942 92.7458 627.618 89.9858 627.618C87.2257 627.618 84.9883 629.942 84.9883 632.809C84.9883 635.676 87.2257 638 89.9858 638Z" fill="#26B6E8"/>
<path d="M93.9832 632.809C93.9832 635.16 92.158 637 89.9858 637C87.8135 637 85.9883 635.16 85.9883 632.809C85.9883 630.458 87.8135 628.618 89.9858 628.618C92.158 628.618 93.9832 630.458 93.9832 632.809Z" stroke="black" stroke-opacity="0.5" stroke-width="2"/>
<path d="M121.245 608C120.282 608 119.334 607.55 118.597 606.65C102.812 587.363 77.1595 587.363 61.3884 606.65C59.9302 608.433 57.5518 608.433 56.0936 606.65C54.6355 604.866 54.6355 601.958 56.0936 600.175C65.1542 589.094 77.1878 583 90 583C102.812 583 114.846 589.094 123.906 600.175C125.365 601.958 125.365 604.866 123.906 606.65C123.156 607.55 122.193 608 121.245 608Z" fill="#26B6E8"/>
<path d="M119.372 606.017L119.371 606.016C111.305 596.161 100.67 591.185 89.9876 591.185C79.3052 591.185 68.6735 596.161 60.6143 606.017C60.0594 606.695 59.3762 606.987 58.741 606.987C58.1059 606.987 57.4226 606.695 56.8678 606.017C55.7107 604.602 55.7107 602.222 56.8678 600.808C65.7635 589.929 77.5254 584 90 584C102.475 584 114.236 589.929 123.132 600.808C124.288 602.221 124.289 604.597 123.135 606.013C122.553 606.709 121.862 607 121.245 607C120.613 607 119.938 606.71 119.372 606.017Z" stroke="black" stroke-opacity="0.5" stroke-width="2"/>
<line x1="-2" y1="872.5" x2="1174" y2="872.5" stroke="#DBDBDB" stroke-width="5"/>
<path d="M224.766 777H218.32L209.742 762.984L201.094 777H195.094L206.461 759.234L195.82 742.734H202.055L209.977 755.695L217.898 742.734H223.945L213.234 759.328L224.766 777ZM241.805 755.25H235.477V777H229.945V755.25H225.68V752.672L229.945 750.984V749.297C229.945 746.234 230.664 743.969 232.102 742.5C233.539 741.016 235.734 740.273 238.688 740.273C240.625 740.273 242.531 740.594 244.406 741.234L242.953 745.406C241.594 744.969 240.297 744.75 239.062 744.75C237.812 744.75 236.898 745.141 236.32 745.922C235.758 746.688 235.477 747.844 235.477 749.391V751.078H241.805V755.25ZM251.719 777H246.211V751.078H251.719V777ZM245.883 744.211C245.883 743.227 246.148 742.469 246.68 741.938C247.227 741.406 248 741.141 249 741.141C249.969 741.141 250.719 741.406 251.25 741.938C251.797 742.469 252.07 743.227 252.07 744.211C252.07 745.148 251.797 745.891 251.25 746.438C250.719 746.969 249.969 747.234 249 747.234C248 747.234 247.227 746.969 246.68 746.438C246.148 745.891 245.883 745.148 245.883 744.211ZM282.445 777H276.914V761.062C276.914 759.062 276.508 757.57 275.695 756.586C274.898 755.602 273.625 755.109 271.875 755.109C269.547 755.109 267.844 755.797 266.766 757.172C265.688 758.547 265.148 760.852 265.148 764.086V777H259.641V751.078H263.953L264.727 754.477H265.008C265.789 753.242 266.898 752.289 268.336 751.617C269.773 750.945 271.367 750.609 273.117 750.609C279.336 750.609 282.445 753.773 282.445 760.102V777ZM295.617 777H290.109V751.078H295.617V777ZM289.781 744.211C289.781 743.227 290.047 742.469 290.578 741.938C291.125 741.406 291.898 741.141 292.898 741.141C293.867 741.141 294.617 741.406 295.148 741.938C295.695 742.469 295.969 743.227 295.969 744.211C295.969 745.148 295.695 745.891 295.148 746.438C294.617 746.969 293.867 747.234 292.898 747.234C291.898 747.234 291.125 746.969 290.578 746.438C290.047 745.891 289.781 745.148 289.781 744.211ZM313.172 773.016C314.516 773.016 315.859 772.805 317.203 772.383V776.531C316.594 776.797 315.805 777.016 314.836 777.188C313.883 777.375 312.891 777.469 311.859 777.469C306.641 777.469 304.031 774.719 304.031 769.219V755.25H300.492V752.812L304.289 750.797L306.164 745.312H309.562V751.078H316.945V755.25H309.562V769.125C309.562 770.453 309.891 771.438 310.547 772.078C311.219 772.703 312.094 773.016 313.172 773.016ZM318.469 751.078H324.469L329.742 765.773C330.539 767.867 331.07 769.836 331.336 771.68H331.523C331.664 770.82 331.922 769.781 332.297 768.562C332.672 767.328 334.656 761.5 338.25 751.078H344.203L333.117 780.445C331.102 785.836 327.742 788.531 323.039 788.531C321.82 788.531 320.633 788.398 319.477 788.133V783.773C320.305 783.961 321.25 784.055 322.312 784.055C324.969 784.055 326.836 782.516 327.914 779.438L328.875 777L318.469 751.078ZM383.883 753.094C383.883 756.672 382.711 759.414 380.367 761.32C378.023 763.227 374.688 764.18 370.359 764.18H366.797V777H361.195V742.734H371.062C375.344 742.734 378.547 743.609 380.672 745.359C382.812 747.109 383.883 749.688 383.883 753.094ZM366.797 759.469H369.773C372.648 759.469 374.758 758.969 376.102 757.969C377.445 756.969 378.117 755.406 378.117 753.281C378.117 751.312 377.516 749.844 376.312 748.875C375.109 747.906 373.234 747.422 370.688 747.422H366.797V759.469ZM408.422 777L407.648 773.602H407.367C406.602 774.805 405.508 775.75 404.086 776.438C402.68 777.125 401.07 777.469 399.258 777.469C396.117 777.469 393.773 776.688 392.227 775.125C390.68 773.562 389.906 771.195 389.906 768.023V751.078H395.461V767.062C395.461 769.047 395.867 770.539 396.68 771.539C397.492 772.523 398.766 773.016 400.5 773.016C402.812 773.016 404.508 772.328 405.586 770.953C406.68 769.562 407.227 767.242 407.227 763.992V751.078H412.758V777H408.422ZM433.852 750.609C437.086 750.609 439.602 751.781 441.398 754.125C443.211 756.469 444.117 759.758 444.117 763.992C444.117 768.242 443.203 771.555 441.375 773.93C439.547 776.289 437.008 777.469 433.758 777.469C430.477 777.469 427.93 776.289 426.117 773.93H425.742L424.734 777H420.609V740.531H426.117V749.203C426.117 749.844 426.086 750.797 426.023 752.062C425.961 753.328 425.914 754.133 425.883 754.477H426.117C427.867 751.898 430.445 750.609 433.852 750.609ZM432.422 755.109C430.203 755.109 428.602 755.766 427.617 757.078C426.648 758.375 426.148 760.555 426.117 763.617V763.992C426.117 767.148 426.617 769.438 427.617 770.859C428.617 772.266 430.25 772.969 432.516 772.969C434.469 772.969 435.945 772.195 436.945 770.648C437.961 769.102 438.469 766.867 438.469 763.945C438.469 758.055 436.453 755.109 432.422 755.109ZM456.023 777H450.516V740.531H456.023V777ZM469.43 777H463.922V751.078H469.43V777ZM463.594 744.211C463.594 743.227 463.859 742.469 464.391 741.938C464.938 741.406 465.711 741.141 466.711 741.141C467.68 741.141 468.43 741.406 468.961 741.938C469.508 742.469 469.781 743.227 469.781 744.211C469.781 745.148 469.508 745.891 468.961 746.438C468.43 746.969 467.68 747.234 466.711 747.234C465.711 747.234 464.938 746.969 464.391 746.438C463.859 745.891 463.594 745.148 463.594 744.211ZM487.781 777.469C483.859 777.469 480.875 776.328 478.828 774.047C476.797 771.75 475.781 768.461 475.781 764.18C475.781 759.82 476.844 756.469 478.969 754.125C481.109 751.781 484.195 750.609 488.227 750.609C490.961 750.609 493.422 751.117 495.609 752.133L493.945 756.562C491.617 755.656 489.695 755.203 488.18 755.203C483.695 755.203 481.453 758.18 481.453 764.133C481.453 767.039 482.008 769.227 483.117 770.695C484.242 772.148 485.883 772.875 488.039 772.875C490.492 772.875 492.812 772.266 495 771.047V775.852C494.016 776.43 492.961 776.844 491.836 777.094C490.727 777.344 489.375 777.469 487.781 777.469Z" fill="black"/>
<path d="M221.561 825.115C221.561 829.369 220.506 832.639 218.396 834.924C216.287 837.209 213.264 838.352 209.326 838.352C205.389 838.352 202.365 837.209 200.256 834.924C198.146 832.639 197.092 829.357 197.092 825.08C197.092 820.803 198.146 817.539 200.256 815.289C202.377 813.027 205.412 811.896 209.361 811.896C213.311 811.896 216.328 813.033 218.414 815.307C220.512 817.58 221.561 820.85 221.561 825.115ZM202.805 825.115C202.805 827.986 203.35 830.148 204.439 831.602C205.529 833.055 207.158 833.781 209.326 833.781C213.674 833.781 215.848 830.893 215.848 825.115C215.848 819.326 213.686 816.432 209.361 816.432C207.193 816.432 205.559 817.164 204.457 818.629C203.355 820.082 202.805 822.244 202.805 825.115ZM237.258 838.352C234.949 838.352 233.139 837.514 231.826 835.838H231.545C231.732 837.479 231.826 838.428 231.826 838.686V846.648H226.465V818.348H230.824L231.58 820.896H231.826C233.08 818.951 234.938 817.979 237.398 817.979C239.719 817.979 241.535 818.875 242.848 820.668C244.16 822.461 244.816 824.951 244.816 828.139C244.816 830.236 244.506 832.059 243.885 833.605C243.275 835.152 242.402 836.33 241.266 837.139C240.129 837.947 238.793 838.352 237.258 838.352ZM235.676 822.268C234.352 822.268 233.385 822.678 232.775 823.498C232.166 824.307 231.85 825.648 231.826 827.523V828.104C231.826 830.213 232.137 831.725 232.758 832.639C233.391 833.553 234.387 834.01 235.746 834.01C238.148 834.01 239.35 832.029 239.35 828.068C239.35 826.135 239.051 824.688 238.453 823.727C237.867 822.754 236.941 822.268 235.676 822.268ZM257.385 821.793C256.248 821.793 255.357 822.156 254.713 822.883C254.068 823.598 253.699 824.617 253.605 825.941H261.129C261.105 824.617 260.76 823.598 260.092 822.883C259.424 822.156 258.521 821.793 257.385 821.793ZM258.141 838.352C254.977 838.352 252.504 837.479 250.723 835.732C248.941 833.986 248.051 831.514 248.051 828.314C248.051 825.021 248.871 822.479 250.512 820.686C252.164 818.881 254.443 817.979 257.35 817.979C260.127 817.979 262.289 818.77 263.836 820.352C265.383 821.934 266.156 824.119 266.156 826.908V829.51H253.482C253.541 831.033 253.992 832.223 254.836 833.078C255.68 833.934 256.863 834.361 258.387 834.361C259.57 834.361 260.689 834.238 261.744 833.992C262.799 833.746 263.9 833.354 265.049 832.814V836.963C264.111 837.432 263.109 837.777 262.043 838C260.977 838.234 259.676 838.352 258.141 838.352ZM288.656 838H283.295V826.521C283.295 825.104 283.043 824.043 282.539 823.34C282.035 822.625 281.232 822.268 280.131 822.268C278.631 822.268 277.547 822.771 276.879 823.779C276.211 824.775 275.877 826.434 275.877 828.754V838H270.516V818.348H274.611L275.332 820.861H275.631C276.229 819.912 277.049 819.197 278.092 818.717C279.146 818.225 280.342 817.979 281.678 817.979C283.963 817.979 285.697 818.6 286.881 819.842C288.064 821.072 288.656 822.854 288.656 825.186V838Z" fill="#959191"/>
<path d="M110.953 793.132C109.99 793.132 109.042 792.677 108.305 791.766C98.1972 779.279 81.7749 779.279 71.6667 791.766C70.2085 793.57 67.8301 793.57 66.372 791.766C64.9138 789.962 64.9138 787.02 66.372 785.216C79.3965 769.104 100.576 769.104 113.6 785.216C115.058 787.02 115.058 789.962 113.6 791.766C112.864 792.677 111.901 793.132 110.953 793.132Z" fill="#26B6E8"/>
<path d="M109.083 791.138L109.083 791.137C103.857 784.681 96.9478 781.401 89.9861 781.401C83.0244 781.401 76.1156 784.681 70.8895 791.137L70.889 791.138C70.3325 791.826 69.65 792.119 69.0193 792.119C68.3887 792.119 67.7062 791.826 67.1496 791.138L66.3804 791.759L67.1496 791.138C65.9879 789.7 65.9879 787.282 67.1496 785.845C73.49 778.002 81.7645 774.132 89.9861 774.132C98.2076 774.132 106.482 778.002 112.823 785.845C113.984 787.282 113.984 789.7 112.823 791.138C112.256 791.839 111.568 792.132 110.953 792.132C110.326 792.132 109.652 791.841 109.083 791.138Z" stroke="black" stroke-opacity="0.5" stroke-width="2"/>
<path d="M100.816 802C99.8528 802 98.9043 801.57 98.1681 800.709C95.9879 798.161 93.0716 796.754 89.9853 796.754C86.899 796.754 83.9827 798.161 81.8025 800.709C80.3443 802.414 77.9659 802.414 76.5077 800.709C75.0495 799.005 75.0495 796.225 76.5077 794.52C80.1036 790.317 84.8887 788 89.9853 788C95.0819 788 99.867 790.317 103.463 794.537C104.921 796.241 104.921 799.021 103.463 800.726C102.741 801.57 101.778 802 100.816 802Z" fill="#26B6E8"/>
<path d="M102.702 795.185L102.703 795.187C103.841 796.517 103.841 798.745 102.703 800.076C102.162 800.708 101.472 801 100.816 801C100.167 801 99.4886 800.714 98.928 800.059C96.5758 797.31 93.3904 795.754 89.9853 795.754C86.5802 795.754 83.3948 797.31 81.0426 800.059C79.9836 801.297 78.3266 801.297 77.2676 800.059C76.1296 798.729 76.1296 796.5 77.2676 795.17C80.6921 791.167 85.2084 789 89.9853 789C94.7618 789 99.2775 791.167 102.702 795.185Z" stroke="black" stroke-opacity="0.5" stroke-width="2"/>
<path d="M89.9858 813C92.7458 813 94.9832 810.676 94.9832 807.809C94.9832 804.942 92.7458 802.618 89.9858 802.618C87.2257 802.618 84.9883 804.942 84.9883 807.809C84.9883 810.676 87.2257 813 89.9858 813Z" fill="#26B6E8"/>
<path d="M93.9832 807.809C93.9832 810.16 92.158 812 89.9858 812C87.8135 812 85.9883 810.16 85.9883 807.809C85.9883 805.458 87.8135 803.618 89.9858 803.618C92.158 803.618 93.9832 805.458 93.9832 807.809Z" stroke="black" stroke-opacity="0.5" stroke-width="2"/>
<path d="M121.245 783C120.282 783 119.334 782.55 118.597 781.65C102.812 762.363 77.1595 762.363 61.3884 781.65C59.9302 783.433 57.5518 783.433 56.0936 781.65C54.6355 779.866 54.6355 776.958 56.0936 775.175C65.1542 764.094 77.1878 758 90 758C102.812 758 114.846 764.094 123.906 775.175C125.365 776.958 125.365 779.866 123.906 781.65C123.156 782.55 122.193 783 121.245 783Z" fill="#26B6E8"/>
<path d="M119.372 781.017L119.371 781.016C111.305 771.161 100.67 766.185 89.9876 766.185C79.3052 766.185 68.6735 771.161 60.6143 781.017C60.0594 781.695 59.3762 781.987 58.741 781.987C58.1059 781.987 57.4226 781.695 56.8678 781.017C55.7107 779.602 55.7107 777.222 56.8678 775.808C65.7635 764.929 77.5254 759 90 759C102.475 759 114.236 764.929 123.132 775.808C124.288 777.221 124.289 779.597 123.135 781.013C122.553 781.709 121.862 782 121.245 782C120.613 782 119.938 781.71 119.372 781.017Z" stroke="black" stroke-opacity="0.5" stroke-width="2"/>
<rect x="15" y="1666" width="1050" height="140" rx="10" fill="#3550F7"/>
<path d="M504.822 1747.34C504.822 1750.83 503.56 1753.57 501.036 1755.56C498.511 1757.54 495.029 1758.54 490.589 1758.54C486.149 1758.54 482.514 1757.85 479.686 1756.47V1750.4C481.476 1751.24 483.374 1751.9 485.379 1752.39C487.402 1752.87 489.282 1753.11 491.019 1753.11C493.561 1753.11 495.432 1752.63 496.631 1751.66C497.849 1750.7 498.458 1749.4 498.458 1747.77C498.458 1746.3 497.903 1745.06 496.792 1744.04C495.682 1743.01 493.391 1741.81 489.917 1740.41C486.337 1738.96 483.812 1737.3 482.344 1735.44C480.876 1733.58 480.142 1731.34 480.142 1728.73C480.142 1725.45 481.306 1722.87 483.633 1720.99C485.961 1719.11 489.085 1718.17 493.006 1718.17C496.766 1718.17 500.507 1719 504.231 1720.64L502.19 1725.88C498.699 1724.41 495.584 1723.68 492.845 1723.68C490.768 1723.68 489.192 1724.14 488.118 1725.05C487.044 1725.94 486.507 1727.13 486.507 1728.62C486.507 1729.64 486.722 1730.52 487.151 1731.25C487.581 1731.97 488.288 1732.65 489.273 1733.29C490.258 1733.94 492.03 1734.79 494.59 1735.84C497.473 1737.04 499.585 1738.16 500.928 1739.2C502.271 1740.24 503.256 1741.41 503.882 1742.72C504.509 1744.03 504.822 1745.57 504.822 1747.34ZM523.729 1758.54C519.235 1758.54 515.815 1757.23 513.47 1754.62C511.142 1751.98 509.979 1748.22 509.979 1743.31C509.979 1738.31 511.196 1734.47 513.631 1731.79C516.084 1729.1 519.62 1727.76 524.239 1727.76C527.372 1727.76 530.192 1728.34 532.698 1729.51L530.792 1734.58C528.124 1733.54 525.922 1733.02 524.185 1733.02C519.047 1733.02 516.478 1736.44 516.478 1743.26C516.478 1746.59 517.113 1749.09 518.384 1750.78C519.673 1752.44 521.553 1753.27 524.024 1753.27C526.835 1753.27 529.493 1752.58 532 1751.18V1756.68C530.872 1757.35 529.664 1757.82 528.375 1758.11C527.103 1758.39 525.555 1758.54 523.729 1758.54ZM557.566 1758L556.304 1753.86H556.089C554.657 1755.67 553.216 1756.91 551.766 1757.57C550.315 1758.21 548.453 1758.54 546.18 1758.54C543.261 1758.54 540.979 1757.75 539.332 1756.17C537.702 1754.6 536.888 1752.37 536.888 1749.49C536.888 1746.43 538.025 1744.12 540.298 1742.56C542.572 1741 546.036 1740.15 550.691 1740.01L555.821 1739.85V1738.26C555.821 1736.36 555.373 1734.95 554.478 1734.02C553.601 1733.07 552.231 1732.59 550.369 1732.59C548.847 1732.59 547.388 1732.82 545.992 1733.27C544.595 1733.71 543.252 1734.24 541.963 1734.85L539.922 1730.34C541.534 1729.5 543.297 1728.86 545.213 1728.43C547.129 1727.98 548.937 1727.76 550.638 1727.76C554.415 1727.76 557.262 1728.58 559.178 1730.23C561.111 1731.88 562.078 1734.47 562.078 1737.99V1758H557.566ZM548.167 1753.7C550.459 1753.7 552.294 1753.07 553.672 1751.8C555.069 1750.51 555.767 1748.71 555.767 1746.4V1743.82L551.954 1743.98C548.982 1744.09 546.815 1744.59 545.455 1745.49C544.112 1746.36 543.44 1747.71 543.44 1749.54C543.44 1750.87 543.834 1751.89 544.622 1752.63C545.41 1753.35 546.591 1753.7 548.167 1753.7ZM597.017 1758H590.679V1739.74C590.679 1737.45 590.214 1735.74 589.283 1734.61C588.37 1733.48 586.91 1732.92 584.905 1732.92C582.238 1732.92 580.286 1733.7 579.051 1735.28C577.815 1736.86 577.198 1739.5 577.198 1743.2V1758H570.887V1728.3H575.828L576.714 1732.19H577.037C577.932 1730.78 579.203 1729.69 580.85 1728.92C582.497 1728.15 584.323 1727.76 586.329 1727.76C593.454 1727.76 597.017 1731.39 597.017 1738.64V1758Z" fill="white"/>
<rect y="215" width="1080" height="135" fill="url(#paint0_linear)"/>
<path d="M56.2344 274.246C56.2344 276.785 55.3164 278.777 53.4805 280.223C51.6445 281.668 49.112 282.391 45.8828 282.391C42.6536 282.391 40.0104 281.889 37.9531 280.887V276.473C39.2552 277.085 40.6354 277.566 42.0938 277.918C43.5651 278.27 44.9323 278.445 46.1953 278.445C48.0443 278.445 49.4049 278.094 50.2773 277.391C51.1628 276.688 51.6055 275.743 51.6055 274.559C51.6055 273.491 51.2018 272.586 50.3945 271.844C49.5872 271.102 47.9206 270.223 45.3945 269.207C42.7904 268.152 40.9544 266.948 39.8867 265.594C38.819 264.24 38.2852 262.612 38.2852 260.711C38.2852 258.328 39.1315 256.453 40.8242 255.086C42.5169 253.719 44.7891 253.035 47.6406 253.035C50.375 253.035 53.0964 253.634 55.8047 254.832L54.3203 258.641C51.7812 257.573 49.5156 257.039 47.5234 257.039C46.013 257.039 44.8672 257.371 44.0859 258.035C43.3047 258.686 42.9141 259.552 42.9141 260.633C42.9141 261.375 43.0703 262.013 43.3828 262.547C43.6953 263.068 44.2096 263.562 44.9258 264.031C45.6419 264.5 46.931 265.118 48.793 265.887C50.8893 266.759 52.4258 267.573 53.4023 268.328C54.3789 269.083 55.0951 269.936 55.5508 270.887C56.0065 271.837 56.2344 272.957 56.2344 274.246ZM78.9883 282L76.1953 271.922C75.8568 270.854 75.2448 268.374 74.3594 264.48H74.1836C73.4284 267.996 72.8294 270.49 72.3867 271.961L69.5156 282H64.4375L58.3828 260.398H63.0703L65.8242 271.043C66.4492 273.673 66.8919 275.926 67.1523 277.801H67.2695C67.3997 276.85 67.5951 275.763 67.8555 274.539C68.1289 273.302 68.3633 272.378 68.5586 271.766L71.8398 260.398H76.8789L80.0625 271.766C80.2578 272.404 80.4987 273.38 80.7852 274.695C81.0846 276.01 81.2604 277.033 81.3125 277.762H81.4688C81.6641 276.16 82.1198 273.921 82.8359 271.043L85.6289 260.398H90.2383L84.1445 282H78.9883ZM98.5586 282H93.9688V260.398H98.5586V282ZM93.6953 254.676C93.6953 253.855 93.9167 253.224 94.3594 252.781C94.8151 252.339 95.4596 252.117 96.293 252.117C97.1003 252.117 97.7253 252.339 98.168 252.781C98.6237 253.224 98.8516 253.855 98.8516 254.676C98.8516 255.457 98.6237 256.076 98.168 256.531C97.7253 256.974 97.1003 257.195 96.293 257.195C95.4596 257.195 94.8151 256.974 94.3594 256.531C93.9167 256.076 93.6953 255.457 93.6953 254.676ZM113.188 278.68C114.307 278.68 115.427 278.504 116.547 278.152V281.609C116.039 281.831 115.382 282.013 114.574 282.156C113.78 282.312 112.953 282.391 112.094 282.391C107.745 282.391 105.57 280.099 105.57 275.516V263.875H102.621V261.844L105.785 260.164L107.348 255.594H110.18V260.398H116.332V263.875H110.18V275.438C110.18 276.544 110.453 277.365 111 277.898C111.56 278.419 112.289 278.68 113.188 278.68ZM129.594 282.391C126.326 282.391 123.839 281.44 122.133 279.539C120.44 277.625 119.594 274.884 119.594 271.316C119.594 267.684 120.479 264.891 122.25 262.938C124.034 260.984 126.605 260.008 129.965 260.008C132.243 260.008 134.294 260.431 136.117 261.277L134.73 264.969C132.79 264.214 131.189 263.836 129.926 263.836C126.189 263.836 124.32 266.316 124.32 271.277C124.32 273.699 124.783 275.522 125.707 276.746C126.645 277.957 128.012 278.562 129.809 278.562C131.853 278.562 133.786 278.055 135.609 277.039V281.043C134.789 281.525 133.91 281.87 132.973 282.078C132.048 282.286 130.922 282.391 129.594 282.391ZM159.691 282H155.082V268.719C155.082 267.052 154.743 265.809 154.066 264.988C153.402 264.168 152.341 263.758 150.883 263.758C148.956 263.758 147.536 264.337 146.625 265.496C145.727 266.642 145.277 268.569 145.277 271.277V282H140.688V251.609H145.277V259.324C145.277 260.561 145.199 261.883 145.043 263.289H145.336C145.961 262.247 146.827 261.44 147.934 260.867C149.053 260.294 150.355 260.008 151.84 260.008C157.074 260.008 159.691 262.645 159.691 267.918V282ZM203.305 282H198.227L193.383 264.969C193.174 264.227 192.914 263.159 192.602 261.766C192.289 260.359 192.1 259.383 192.035 258.836C191.905 259.669 191.69 260.75 191.391 262.078C191.104 263.406 190.863 264.396 190.668 265.047L185.941 282H180.863L177.172 267.703L173.422 253.445H178.188L182.27 270.086C182.908 272.755 183.363 275.112 183.637 277.156C183.78 276.049 183.995 274.812 184.281 273.445C184.568 272.078 184.828 270.971 185.062 270.125L189.711 253.445H194.34L199.105 270.203C199.561 271.753 200.043 274.07 200.551 277.156C200.746 275.294 201.215 272.924 201.957 270.047L206.02 253.445H210.746L203.305 282ZM218.91 282H214.32V260.398H218.91V282ZM214.047 254.676C214.047 253.855 214.268 253.224 214.711 252.781C215.167 252.339 215.811 252.117 216.645 252.117C217.452 252.117 218.077 252.339 218.52 252.781C218.975 253.224 219.203 253.855 219.203 254.676C219.203 255.457 218.975 256.076 218.52 256.531C218.077 256.974 217.452 257.195 216.645 257.195C215.811 257.195 215.167 256.974 214.711 256.531C214.268 256.076 214.047 255.457 214.047 254.676ZM236.332 263.875H231.059V282H226.449V263.875H222.895V261.727L226.449 260.32V258.914C226.449 256.362 227.048 254.474 228.246 253.25C229.444 252.013 231.273 251.395 233.734 251.395C235.349 251.395 236.938 251.661 238.5 252.195L237.289 255.672C236.156 255.307 235.076 255.125 234.047 255.125C233.005 255.125 232.243 255.451 231.762 256.102C231.293 256.74 231.059 257.703 231.059 258.992V260.398H236.332V263.875ZM244.594 282H240.004V260.398H244.594V282ZM239.73 254.676C239.73 253.855 239.952 253.224 240.395 252.781C240.85 252.339 241.495 252.117 242.328 252.117C243.135 252.117 243.76 252.339 244.203 252.781C244.659 253.224 244.887 253.855 244.887 254.676C244.887 255.457 244.659 256.076 244.203 256.531C243.76 256.974 243.135 257.195 242.328 257.195C241.495 257.195 240.85 256.974 240.395 256.531C239.952 256.076 239.73 255.457 239.73 254.676Z" fill="white"/>
<rect x="953" y="261" width="70" height="40" rx="20" fill="#EBA729" fill-opacity="0.5"/>
<g filter="url(#filter0_d)">
<circle cx="1011" cy="282" r="30" fill="#EBA729"/>
</g>
<rect y="215" width="1080" height="135" fill="url(#paint1_linear)"/>
<path d="M56.2344 274.246C56.2344 276.785 55.3164 278.777 53.4805 280.223C51.6445 281.668 49.112 282.391 45.8828 282.391C42.6536 282.391 40.0104 281.889 37.9531 280.887V276.473C39.2552 277.085 40.6354 277.566 42.0938 277.918C43.5651 278.27 44.9323 278.445 46.1953 278.445C48.0443 278.445 49.4049 278.094 50.2773 277.391C51.1628 276.688 51.6055 275.743 51.6055 274.559C51.6055 273.491 51.2018 272.586 50.3945 271.844C49.5872 271.102 47.9206 270.223 45.3945 269.207C42.7904 268.152 40.9544 266.948 39.8867 265.594C38.819 264.24 38.2852 262.612 38.2852 260.711C38.2852 258.328 39.1315 256.453 40.8242 255.086C42.5169 253.719 44.7891 253.035 47.6406 253.035C50.375 253.035 53.0964 253.634 55.8047 254.832L54.3203 258.641C51.7812 257.573 49.5156 257.039 47.5234 257.039C46.013 257.039 44.8672 257.371 44.0859 258.035C43.3047 258.686 42.9141 259.552 42.9141 260.633C42.9141 261.375 43.0703 262.013 43.3828 262.547C43.6953 263.068 44.2096 263.562 44.9258 264.031C45.6419 264.5 46.931 265.118 48.793 265.887C50.8893 266.759 52.4258 267.573 53.4023 268.328C54.3789 269.083 55.0951 269.936 55.5508 270.887C56.0065 271.837 56.2344 272.957 56.2344 274.246ZM78.9883 282L76.1953 271.922C75.8568 270.854 75.2448 268.374 74.3594 264.48H74.1836C73.4284 267.996 72.8294 270.49 72.3867 271.961L69.5156 282H64.4375L58.3828 260.398H63.0703L65.8242 271.043C66.4492 273.673 66.8919 275.926 67.1523 277.801H67.2695C67.3997 276.85 67.5951 275.763 67.8555 274.539C68.1289 273.302 68.3633 272.378 68.5586 271.766L71.8398 260.398H76.8789L80.0625 271.766C80.2578 272.404 80.4987 273.38 80.7852 274.695C81.0846 276.01 81.2604 277.033 81.3125 277.762H81.4688C81.6641 276.16 82.1198 273.921 82.8359 271.043L85.6289 260.398H90.2383L84.1445 282H78.9883ZM98.5586 282H93.9688V260.398H98.5586V282ZM93.6953 254.676C93.6953 253.855 93.9167 253.224 94.3594 252.781C94.8151 252.339 95.4596 252.117 96.293 252.117C97.1003 252.117 97.7253 252.339 98.168 252.781C98.6237 253.224 98.8516 253.855 98.8516 254.676C98.8516 255.457 98.6237 256.076 98.168 256.531C97.7253 256.974 97.1003 257.195 96.293 257.195C95.4596 257.195 94.8151 256.974 94.3594 256.531C93.9167 256.076 93.6953 255.457 93.6953 254.676ZM113.188 278.68C114.307 278.68 115.427 278.504 116.547 278.152V281.609C116.039 281.831 115.382 282.013 114.574 282.156C113.78 282.312 112.953 282.391 112.094 282.391C107.745 282.391 105.57 280.099 105.57 275.516V263.875H102.621V261.844L105.785 260.164L107.348 255.594H110.18V260.398H116.332V263.875H110.18V275.438C110.18 276.544 110.453 277.365 111 277.898C111.56 278.419 112.289 278.68 113.188 278.68ZM129.594 282.391C126.326 282.391 123.839 281.44 122.133 279.539C120.44 277.625 119.594 274.884 119.594 271.316C119.594 267.684 120.479 264.891 122.25 262.938C124.034 260.984 126.605 260.008 129.965 260.008C132.243 260.008 134.294 260.431 136.117 261.277L134.73 264.969C132.79 264.214 131.189 263.836 129.926 263.836C126.189 263.836 124.32 266.316 124.32 271.277C124.32 273.699 124.783 275.522 125.707 276.746C126.645 277.957 128.012 278.562 129.809 278.562C131.853 278.562 133.786 278.055 135.609 277.039V281.043C134.789 281.525 133.91 281.87 132.973 282.078C132.048 282.286 130.922 282.391 129.594 282.391ZM159.691 282H155.082V268.719C155.082 267.052 154.743 265.809 154.066 264.988C153.402 264.168 152.341 263.758 150.883 263.758C148.956 263.758 147.536 264.337 146.625 265.496C145.727 266.642 145.277 268.569 145.277 271.277V282H140.688V251.609H145.277V259.324C145.277 260.561 145.199 261.883 145.043 263.289H145.336C145.961 262.247 146.827 261.44 147.934 260.867C149.053 260.294 150.355 260.008 151.84 260.008C157.074 260.008 159.691 262.645 159.691 267.918V282ZM203.305 282H198.227L193.383 264.969C193.174 264.227 192.914 263.159 192.602 261.766C192.289 260.359 192.1 259.383 192.035 258.836C191.905 259.669 191.69 260.75 191.391 262.078C191.104 263.406 190.863 264.396 190.668 265.047L185.941 282H180.863L177.172 267.703L173.422 253.445H178.188L182.27 270.086C182.908 272.755 183.363 275.112 183.637 277.156C183.78 276.049 183.995 274.812 184.281 273.445C184.568 272.078 184.828 270.971 185.062 270.125L189.711 253.445H194.34L199.105 270.203C199.561 271.753 200.043 274.07 200.551 277.156C200.746 275.294 201.215 272.924 201.957 270.047L206.02 253.445H210.746L203.305 282ZM218.91 282H214.32V260.398H218.91V282ZM214.047 254.676C214.047 253.855 214.268 253.224 214.711 252.781C215.167 252.339 215.811 252.117 216.645 252.117C217.452 252.117 218.077 252.339 218.52 252.781C218.975 253.224 219.203 253.855 219.203 254.676C219.203 255.457 218.975 256.076 218.52 256.531C218.077 256.974 217.452 257.195 216.645 257.195C215.811 257.195 215.167 256.974 214.711 256.531C214.268 256.076 214.047 255.457 214.047 254.676ZM236.332 263.875H231.059V282H226.449V263.875H222.895V261.727L226.449 260.32V258.914C226.449 256.362 227.048 254.474 228.246 253.25C229.444 252.013 231.273 251.395 233.734 251.395C235.349 251.395 236.938 251.661 238.5 252.195L237.289 255.672C236.156 255.307 235.076 255.125 234.047 255.125C233.005 255.125 232.243 255.451 231.762 256.102C231.293 256.74 231.059 257.703 231.059 258.992V260.398H236.332V263.875ZM244.594 282H240.004V260.398H244.594V282ZM239.73 254.676C239.73 253.855 239.952 253.224 240.395 252.781C240.85 252.339 241.495 252.117 242.328 252.117C243.135 252.117 243.76 252.339 244.203 252.781C244.659 253.224 244.887 253.855 244.887 254.676C244.887 255.457 244.659 256.076 244.203 256.531C243.76 256.974 243.135 257.195 242.328 257.195C241.495 257.195 240.85 256.974 240.395 256.531C239.952 256.076 239.73 255.457 239.73 254.676Z" fill="white"/>
<rect x="953" y="261" width="70" height="40" rx="20" fill="#EBA729" fill-opacity="0.5"/>
<g filter="url(#filter1_d)">
<circle cx="1011" cy="282" r="30" fill="#EBA729"/>
</g>
<circle cx="1025" cy="114" r="5" fill="white"/>
<circle cx="1025" cy="146" r="5" fill="white"/>
<circle cx="1025" cy="130" r="5" fill="white"/>
<rect y="1" width="1080" height="65" fill="#6A6A6A"/>
<path d="M37.2656 36.084C37.2656 30.998 38.3379 27.2129 40.4824 24.7285C42.6387 22.2441 45.8613 21.002 50.1504 21.002C51.6152 21.002 52.7637 21.0898 53.5957 21.2656V25.6074C52.5527 25.373 51.5215 25.2559 50.502 25.2559C48.6387 25.2559 47.1152 25.5371 45.9316 26.0996C44.7598 26.6621 43.8809 27.4941 43.2949 28.5957C42.709 29.6973 42.3633 31.2617 42.2578 33.2891H42.4863C43.6465 31.2969 45.5039 30.3008 48.0586 30.3008C50.3555 30.3008 52.1543 31.0215 53.4551 32.4629C54.7559 33.9043 55.4062 35.8965 55.4062 38.4395C55.4062 41.1816 54.6328 43.3555 53.0859 44.9609C51.5391 46.5547 49.3945 47.3516 46.6523 47.3516C44.7539 47.3516 43.0957 46.9121 41.6777 46.0332C40.2715 45.1543 39.1816 43.8711 38.4082 42.1836C37.6465 40.4961 37.2656 38.4629 37.2656 36.084ZM46.5469 43.0098C47.707 43.0098 48.5977 42.623 49.2188 41.8496C49.8398 41.0645 50.1504 39.9512 50.1504 38.5098C50.1504 37.2559 49.8574 36.2715 49.2715 35.5566C48.6973 34.8301 47.8242 34.4668 46.6523 34.4668C45.5508 34.4668 44.6074 34.8242 43.8223 35.5391C43.0488 36.2539 42.6621 37.0859 42.6621 38.0352C42.6621 39.4297 43.0254 40.6074 43.752 41.5684C44.4902 42.5293 45.4219 43.0098 46.5469 43.0098ZM58.623 44.4863C58.623 43.502 58.8867 42.7578 59.4141 42.2539C59.9414 41.75 60.709 41.498 61.7168 41.498C62.6895 41.498 63.4395 41.7559 63.9668 42.2715C64.5059 42.7871 64.7754 43.5254 64.7754 44.4863C64.7754 45.4121 64.5059 46.1445 63.9668 46.6836C63.4277 47.2109 62.6777 47.4746 61.7168 47.4746C60.7324 47.4746 59.9707 47.2168 59.4316 46.7012C58.8926 46.1738 58.623 45.4355 58.623 44.4863ZM58.623 29.9668C58.623 28.9824 58.8867 28.2383 59.4141 27.7344C59.9414 27.2305 60.709 26.9785 61.7168 26.9785C62.6895 26.9785 63.4395 27.2363 63.9668 27.752C64.5059 28.2676 64.7754 29.0059 64.7754 29.9668C64.7754 30.916 64.5 31.6543 63.9492 32.1816C63.4102 32.6973 62.666 32.9551 61.7168 32.9551C60.7324 32.9551 59.9707 32.6973 59.4316 32.1816C58.8926 31.666 58.623 30.9277 58.623 29.9668ZM81.7031 47H76.2715V32.1289L76.3242 29.6855L76.4121 27.0137C75.5098 27.916 74.8828 28.5078 74.5312 28.7891L71.5781 31.1621L68.959 27.8926L77.2383 21.3008H81.7031V47ZM106.805 47H88.8398V43.2207L95.291 36.6992C97.2012 34.7422 98.4492 33.3887 99.0352 32.6387C99.6211 31.877 100.043 31.1738 100.301 30.5293C100.559 29.8848 100.688 29.2168 100.688 28.5254C100.688 27.4941 100.4 26.7266 99.8262 26.2227C99.2637 25.7188 98.5078 25.4668 97.5586 25.4668C96.5625 25.4668 95.5957 25.6953 94.6582 26.1523C93.7207 26.6094 92.7422 27.2598 91.7227 28.1035L88.7695 24.6055C90.0352 23.5273 91.084 22.7656 91.916 22.3203C92.748 21.875 93.6562 21.5352 94.6406 21.3008C95.625 21.0547 96.7266 20.9316 97.9453 20.9316C99.5508 20.9316 100.969 21.2246 102.199 21.8105C103.43 22.3965 104.385 23.2168 105.064 24.2715C105.744 25.3262 106.084 26.5332 106.084 27.8926C106.084 29.0762 105.873 30.1895 105.451 31.2324C105.041 32.2637 104.396 33.3242 103.518 34.4141C102.65 35.5039 101.115 37.0566 98.9121 39.0723L95.6074 42.1836V42.4297H106.805V47Z" fill="white"/>
<path d="M965 52.7177L940 21.5685C948.132 15.8562 956.465 13 965 13C973.535 13 981.868 15.8562 990 21.5685L965 52.7177Z" fill="white"/>
<path d="M1032.29 16.9437C1033.04 16.9437 1033.66 17.2254 1034.16 17.7887C1034.72 18.2895 1035 18.9155 1035 19.6667V50.3709C1035 51.1221 1034.72 51.748 1034.16 52.2488C1033.66 52.7496 1033.04 53 1032.29 53H1017.71C1016.96 53 1016.31 52.7496 1015.75 52.2488C1015.25 51.748 1015 51.1221 1015 50.3709V19.6667C1015 18.9155 1015.25 18.2895 1015.75 17.7887C1016.31 17.2254 1016.96 16.9437 1017.71 16.9437H1020.98V13H1029.02V16.9437H1032.29Z" fill="white"/>
</g>
<defs>
<filter id="filter0_d" x="975" y="250" width="72" height="72" filterUnits="userSpaceOnUse" color-interpolation-filters="sRGB">
<feFlood flood-opacity="0" result="BackgroundImageFix"/>
<feColorMatrix in="SourceAlpha" type="matrix" values="0 0 0 0 0 0 0 0 0 0 0 0 0 0 0 0 0 0 127 0"/>
<feOffset dy="4"/>
<feGaussianBlur stdDeviation="3"/>
<feColorMatrix type="matrix" values="0 0 0 0 0 0 0 0 0 0 0 0 0 0 0 0 0 0 0.2 0"/>
<feBlend mode="normal" in2="BackgroundImageFix" result="effect1_dropShadow"/>
<feBlend mode="normal" in="SourceGraphic" in2="effect1_dropShadow" result="shape"/>
</filter>
<filter id="filter1_d" x="975" y="250" width="72" height="72" filterUnits="userSpaceOnUse" color-interpolation-filters="sRGB">
<feFlood flood-opacity="0" result="BackgroundImageFix"/>
<feColorMatrix in="SourceAlpha" type="matrix" values="0 0 0 0 0 0 0 0 0 0 0 0 0 0 0 0 0 0 127 0"/>
<feOffset dy="4"/>
<feGaussianBlur stdDeviation="3"/>
<feColorMatrix type="matrix" values="0 0 0 0 0 0 0 0 0 0 0 0 0 0 0 0 0 0 0.2 0"/>
<feBlend mode="normal" in2="BackgroundImageFix" result="effect1_dropShadow"/>
<feBlend mode="normal" in="SourceGraphic" in2="effect1_dropShadow" result="shape"/>
</filter>
<linearGradient id="paint0_linear" x1="540" y1="215" x2="540" y2="350" gradientUnits="userSpaceOnUse">
<stop stop-color="#958F8F"/>
<stop offset="1" stop-color="#616161"/>
</linearGradient>
<linearGradient id="paint1_linear" x1="540" y1="215" x2="540" y2="350" gradientUnits="userSpaceOnUse">
<stop stop-color="#958F8F"/>
<stop offset="1" stop-color="#616161"/>
</linearGradient>
<clipPath id="clip0">
<rect width="1080" height="1920" fill="white"/>
</clipPath>
</defs>
</svg>
