<?xml version="1.0" encoding="utf-8"?>
<!-- Generator: Adobe Illustrator 24.3.0, SVG Export Plug-In . SVG Version: 6.00 Build 0)  -->
<svg version="1.1" id="Layer_1" xmlns="http://www.w3.org/2000/svg" xmlns:xlink="http://www.w3.org/1999/xlink" x="0px" y="0px"
	 viewBox="0 0 2513.7 5178" style="enable-background:new 0 0 2513.7 5178;" xml:space="preserve">
<style type="text/css">
	.st0{fill:#21261A;}
	.st1{fill:#2C2D26;}
	.st2{fill:#029EFC;}
	.st3{fill:#0A141D;}
	.st4{fill:url(#SVGID_1_);}
	.st5{opacity:0.5;clip-path:url(#SVGID_3_);fill:url(#SVGID_4_);}
	.st6{fill:#1C2224;}
	.st7{opacity:0.5;}
	.st8{clip-path:url(#SVGID_6_);fill:url(#SVGID_7_);}
	.st9{fill:#FAFDFD;}
	.st10{fill:#FFFFFF;}
	.st11{clip-path:url(#SVGID_9_);fill:none;stroke:#0E1215;stroke-width:13.9335;stroke-miterlimit:10;}
	.st12{clip-path:url(#SVGID_11_);fill:none;stroke:#0E1215;stroke-width:15;stroke-miterlimit:10;}
	.st13{fill:#FFFF04;}
	.st14{fill:#434946;}
	.st15{fill:#6F93AB;}
	.st16{fill:#121A23;}
	.st17{fill:#0A9FFF;}
	.st18{fill:url(#SVGID_12_);}
	.st19{fill:url(#SVGID_13_);}
	.st20{fill:url(#SVGID_14_);}
	.st21{fill:url(#SVGID_15_);}
	.st22{fill:url(#SVGID_16_);}
	.st23{fill:url(#SVGID_17_);}
	.st24{fill:url(#SVGID_18_);}
	.st25{fill:url(#SVGID_19_);}
	.st26{fill:url(#SVGID_20_);}
	.st27{fill:url(#SVGID_21_);}
	.st28{fill:url(#SVGID_22_);}
	.st29{fill:url(#SVGID_23_);}
	.st30{fill:url(#SVGID_24_);}
</style>
<g id="side_buttons">
	<path class="st0" d="M2407.5,491.4h86.3c11.6,0,20.7,9.8,20,21.3L2493,830.5c-0.4,6.6-4.1,12.6-9.9,16l-92.6,54.1
		c-13.9,8.1-31.2-2.7-30-18.7l27-371.9C2388.3,499.5,2397,491.4,2407.5,491.4z"/>
	<g>
		<path class="st1" d="M15,1308.8h147.3c8.3,0,15-6.7,15-15v-224.2c0-8.3-6.7-15-15-15H15c-8.3,0-15,6.7-15,15v224.2
			C0,1302.1,6.7,1308.8,15,1308.8z"/>
	</g>
	<g>
		<path class="st1" d="M15,1592.9h147.3c8.3,0,15-6.7,15-15v-184.4c0-8.3-6.7-15-15-15H15c-8.3,0-15,6.7-15,15v184.4
			C0,1586.2,6.7,1592.9,15,1592.9z"/>
	</g>
	<g>
		<path class="st2" d="M15,2250.8h147.3c8.3,0,15-6.7,15-15v-541.1c0-8.3-6.7-15-15-15H15c-8.3,0-15,6.7-15,15v541.1
			C0,2244.1,6.7,2250.8,15,2250.8z"/>
	</g>
	<g>
		<path class="st1" d="M2328.9,1308.8h147.3c8.3,0,15-6.7,15-15v-224.2c0-8.3-6.7-15-15-15h-147.3c-8.3,0-15,6.7-15,15v224.2
			C2313.9,1302.1,2320.7,1308.8,2328.9,1308.8z"/>
	</g>
	<g>
		<path class="st1" d="M2328.9,1592.9h147.3c8.3,0,15-6.7,15-15v-184.4c0-8.3-6.7-15-15-15h-147.3c-8.3,0-15,6.7-15,15v184.4
			C2313.9,1586.2,2320.7,1592.9,2328.9,1592.9z"/>
	</g>
	<g>
		<path class="st2" d="M2328.9,2250.8h147.3c8.3,0,15-6.7,15-15v-541.1c0-8.3-6.7-15-15-15h-147.3c-8.3,0-15,6.7-15,15v541.1
			C2313.9,2244.1,2320.7,2250.8,2328.9,2250.8z"/>
	</g>
</g>
<polygon class="st3" points="669.1,4830 1817.1,4830 1817.1,5090.6 1486.9,5178 1004.5,5178 669.1,5090.6 "/>
<g>
	<path class="st1" d="M1246.4,10H771.7c-175.3,0-348.5,38.6-507.2,113l-117.1,54.9c-63.1,29.6-103.4,93-103.4,162.7
		c0,0-27.5,1526,1.4,1967.2C126.5,3550.1,120.5,4639,120.5,4639c1.2,44.2,14.5,87.2,38.5,124.3l213.8,329.6
		c14,21.7,37.7,35.3,63.5,36.4l243,15.6c31.5,2,62.3-10.2,83.8-33.2l39.3-42c34.3-36.6,81.6-58.2,131.7-60l216.3-7.9
		c63.9-2.3,127.9-2.5,191.8-0.4l197.1,6.3c45.2,1.4,88.3,19,121.8,49.4l67.2,61.2c21.2,19.3,49.2,29.1,77.8,27.3l250.3-16.1
		c25.8-1.1,49.5-14.7,63.5-36.4l213.8-329.6c24-37.1,37.3-80.1,38.5-124.3c0,0-6-1088.9,75.2-2331.1
		c28.8-441.2,1.4-1967.2,1.4-1967.2c0-69.7-40.3-133.1-103.4-162.7L2228.3,123c-158.7-74.4-331.9-113-507.2-113H1246.4z"/>
	<linearGradient id="SVGID_1_" gradientUnits="userSpaceOnUse" x1="-490.5162" y1="3399.3582" x2="3119.7737" y2="1715.8523">
		<stop  offset="0" style="stop-color:#000000"/>
		<stop  offset="1" style="stop-color:#B5B5B5"/>
	</linearGradient>
	<path class="st4" d="M1721.1,10c175.3,0,348.5,38.6,507.2,113l117.1,54.9c63.1,29.6,103.4,93,103.4,162.7c0,0,27.5,1526-1.4,1967.2
		c-81.2,1242.3-75.2,2331.1-75.2,2331.1c-1.2,44.2-14.5,87.2-38.5,124.3L2120,5092.9c-14,21.7-37.7,35.3-63.5,36.4l-250.4,16.1
		c-2.3,0.1-4.5,0.2-6.8,0.2c-26.2,0-51.5-9.8-71-27.5l-67.2-61.2c-33.4-30.4-76.6-47.9-121.8-49.4l-197.1-6.3
		c-29.8-1-59.6-1.4-89.5-1.4c-34.1,0-68.3,0.6-102.4,1.9l-216.3,7.9c-50.1,1.8-97.5,23.4-131.7,60l-39.3,42
		c-20,21.4-47.9,33.4-77,33.4c-2.3,0-4.5-0.1-6.8-0.2l-243-15.6c-25.8-1.1-49.5-14.7-63.5-36.4L159,4763.3
		c-24-37.1-37.3-80.1-38.5-124.3c0,0,6-1088.9-75.2-2331.1c-28.8-441.2-1.4-1967.2-1.4-1967.2c0-69.7,40.3-133.1,103.4-162.7
		L264.5,123C423.2,48.6,596.4,10,771.7,10h474.7H1721.1 M1721.1,0h-474.7H771.7c-88,0-176.1,9.7-262,28.8
		C423.9,48,339.9,76.6,260.3,113.9l-117.1,54.9c-32.7,15.3-60.2,39.5-79.6,70C44.2,269.3,34,304.5,33.9,340.6
		c-0.1,7.1-6.9,388.3-10.1,818.2c-1.9,253.6-2.2,474.2-0.9,655.7c1.6,227,5.8,393.3,12.4,494.1c18.5,283.3,34,582,46,888
		c9.6,244.8,17,494.7,22,742.9c8.5,422.5,7.2,696.8,7.1,699.5l0,0.2l0,0.2c1.3,46,15.1,90.8,40.1,129.4l213.8,329.6
		c15.7,24.3,42.4,39.6,71.3,41l242.9,15.6c2.5,0.2,5,0.2,7.4,0.2c31.8,0,62.6-13.3,84.3-36.6l39.3-42c16.2-17.3,35.2-31,56.8-40.8
		c21.5-9.8,44.4-15.2,68-16.1l216.3-7.9c33.8-1.2,68.1-1.9,102-1.9c29.6,0,59.6,0.5,89.2,1.4l197.1,6.3c42.8,1.4,83.7,18,115.4,46.8
		l67.2,61.2c21.3,19.4,48.9,30.1,77.7,30.1c2.5,0,5-0.1,7.4-0.2l250.3-16.1c29-1.3,55.6-16.6,71.4-41l213.8-329.6
		c25-38.7,38.9-83.4,40.1-129.5l0-0.2l0-0.2c0-2.7-1.4-277,7.1-699.5c5-248.1,12.4-498.1,22-742.9c12-306,27.5-604.8,46-888
		c6.6-100.8,10.8-267.1,12.4-494.1c1.3-181.5,1-402.1-0.9-655.7c-3.2-429.8-10-811.1-10.1-818.2c0-36.1-10.3-71.2-29.6-101.7
		c-19.4-30.5-46.9-54.7-79.6-70l-117.1-54.9c-79.7-37.3-163.6-66-249.4-85.1C1897.3,9.7,1809.1,0,1721.1,0L1721.1,0z"/>
</g>
<g id="highlight_outer">
	<defs>
		<path id="SVGID_2_" d="M1246.4,10H771.7c-175.3,0-348.5,38.6-507.2,113l-117.1,54.9c-63.1,29.6-103.4,93-103.4,162.7
			c0,0-27.5,1526,1.4,1967.2C126.5,3550.1,120.5,4639,120.5,4639c1.2,44.2,14.5,87.2,38.5,124.3l213.8,329.6
			c14,21.7,37.7,35.3,63.5,36.4l243,15.6c31.5,2,62.3-10.2,83.8-33.2l39.3-42c34.3-36.6,81.6-58.2,131.7-60l216.3-7.9
			c63.9-2.3,127.9-2.5,191.8-0.4l197.1,6.3c45.2,1.4,88.3,19,121.8,49.4l67.2,61.2c21.2,19.3,49.2,29.1,77.8,27.3l250.3-16.1
			c25.8-1.1,49.5-14.7,63.5-36.4l213.8-329.6c24-37.1,37.3-80.1,38.5-124.3c0,0-6-1088.9,75.2-2331.1
			c28.8-441.2,1.4-1967.2,1.4-1967.2c0-69.7-40.3-133.1-103.4-162.7L2228.3,123c-158.7-74.4-331.9-113-507.2-113H1246.4z"/>
	</defs>
	<clipPath id="SVGID_3_">
		<use xlink:href="#SVGID_2_"  style="overflow:visible;"/>
	</clipPath>
	<linearGradient id="SVGID_4_" gradientUnits="userSpaceOnUse" x1="1274.4265" y1="966.6177" x2="-1565.7871" y2="4485.8145">
		<stop  offset="1.629842e-02" style="stop-color:#FFFFFF;stop-opacity:0"/>
		<stop  offset="4.643470e-02" style="stop-color:#FFFFFF;stop-opacity:0.9459"/>
		<stop  offset="4.815698e-02" style="stop-color:#FFFFFF"/>
		<stop  offset="0.7656" style="stop-color:#FFFFFF;stop-opacity:0"/>
	</linearGradient>
	<polygon class="st5" points="14.6,86.1 294.3,371.6 249.1,4678.6 14.6,4826.7 	"/>
</g>
<path class="st6" d="M617.7,5102.4l-121-17.5c-56.7-8.2-106.8-41-137-89.7l-164.8-265.5c-19.1-30.7-29.2-66.1-29.2-102.2
	l-3.1-4248.9c0-37.2,26.1-69.3,62.6-76.7l257.1-52.4c12.7-2.6,25.7-3.9,38.7-3.9h728.3H1952c16.1,0,32.2,2,47.8,6l290.3,73.9
	c25.8,6.6,43.8,29.8,43.8,56.4v4243.3c0,37.6-10.9,74.3-31.4,105.8l-175.9,270.3c-31.7,48.7-83.5,80.6-141.2,87l-138.9,15.4
	c-51.6,5.7-103.3-9.4-143.6-42.1l-7.6-6.1c-29.7-24.1-84.9-58.8-122.9-62.4l-302.8-10.4c-12.1-1.1-24.2-1.1-36.3,0l-350.7,12.5
	c-38.8,3.6-83.6,39.9-113.6,64.7l0,0C727,5094.8,671.9,5110.2,617.7,5102.4z"/>
<g id="highlight_inner" class="st7">
	<defs>
		<path id="SVGID_5_" class="st7" d="M617.7,5102.4l-121-17.5c-56.7-8.2-106.8-41-137-89.7l-164.8-265.5
			c-19.1-30.7-29.2-66.1-29.2-102.2l-3.1-4248.9c0-37.2,26.1-69.3,62.6-76.7l257.1-52.4c12.7-2.6,25.7-3.9,38.7-3.9h728.3H1952
			c16.1,0,32.2,2,47.8,6l290.3,73.9c25.8,6.6,43.8,29.8,43.8,56.4v4243.3c0,37.6-10.9,74.3-31.4,105.8l-175.9,270.3
			c-31.7,48.7-83.5,80.6-141.2,87l-138.9,15.4c-51.6,5.7-103.3-9.4-143.6-42.1l-7.6-6.1c-29.7-24.1-84.9-58.8-122.9-62.4
			l-302.8-10.4c-12.1-1.1-24.2-1.1-36.3,0l-350.7,12.5c-38.8,3.6-83.6,39.9-113.6,64.7l0,0C727,5094.8,671.9,5110.2,617.7,5102.4z"
			/>
	</defs>
	<clipPath id="SVGID_6_">
		<use xlink:href="#SVGID_5_"  style="overflow:visible;"/>
	</clipPath>
	<linearGradient id="SVGID_7_" gradientUnits="userSpaceOnUse" x1="2337.9578" y1="324.8264" x2="2337.9578" y2="4048.8735">
		<stop  offset="1.115774e-02" style="stop-color:#FFFFFF;stop-opacity:0"/>
		<stop  offset="2.842229e-02" style="stop-color:#FFFFFF;stop-opacity:0.9459"/>
		<stop  offset="2.940896e-02" style="stop-color:#FFFFFF"/>
		<stop  offset="0.7656" style="stop-color:#FFFFFF;stop-opacity:0"/>
	</linearGradient>
	<polygon class="st8" points="2539.9,298.2 2155.1,408.6 2136,3990 2539.9,4031.9 	"/>
</g>
<path class="st3" d="M218.8,4070.5h2054.5c10.2,0,18.6-8.3,18.6-18.6V390.1c0-10.2-8.3-18.6-18.6-18.6H218.8
	c-10.2,0-18.6,8.3-18.6,18.6v3661.8C200.3,4062.2,208.6,4070.5,218.8,4070.5z"/>
<rect id="screen" x="327.6" y="488.9" class="st9" width="1848" height="3297.9"/>
<g id="mic" class="st7">
	<path class="st10" d="M920.4,5043.8h658.1c13.4,0,24.3,10.9,24.3,24.3l0,0c0,3.7-3,6.7-6.7,6.7H902.8c-3.7,0-6.7-3-6.7-6.7l0,0
		C896,5054.7,906.9,5043.8,920.4,5043.8z"/>
	<g>
		<defs>
			<path id="SVGID_8_" d="M920.4,5043.8h658.1c13.4,0,24.3,10.9,24.3,24.3l0,0c0,3.7-3,6.7-6.7,6.7H902.8c-3.7,0-6.7-3-6.7-6.7l0,0
				C896,5054.7,906.9,5043.8,920.4,5043.8z"/>
		</defs>
		<clipPath id="SVGID_9_">
			<use xlink:href="#SVGID_8_"  style="overflow:visible;"/>
		</clipPath>
		<line class="st11" x1="1554.2" y1="5112.7" x2="1588" y2="4982.9"/>
		<line class="st11" x1="1519.4" y1="5112.7" x2="1553.2" y2="4982.9"/>
		<line class="st11" x1="1484.7" y1="5112.7" x2="1518.5" y2="4982.9"/>
		<line class="st11" x1="1449.9" y1="5112.7" x2="1483.7" y2="4982.9"/>
		<line class="st11" x1="1415.1" y1="5112.7" x2="1448.9" y2="4982.9"/>
		<line class="st11" x1="1380.4" y1="5112.7" x2="1414.2" y2="4982.9"/>
		<line class="st11" x1="1345.6" y1="5112.7" x2="1379.4" y2="4982.9"/>
		<line class="st11" x1="1310.8" y1="5112.7" x2="1344.6" y2="4982.9"/>
		<line class="st11" x1="1276.1" y1="5112.7" x2="1309.9" y2="4982.9"/>
		<line class="st11" x1="1241.3" y1="5112.7" x2="1275.1" y2="4982.9"/>
		<line class="st11" x1="1206.6" y1="5112.7" x2="1240.3" y2="4982.9"/>
		<line class="st11" x1="1171.8" y1="5112.7" x2="1205.6" y2="4982.9"/>
		<line class="st11" x1="1137" y1="5112.7" x2="1170.8" y2="4982.9"/>
		<line class="st11" x1="1102.3" y1="5112.7" x2="1136.1" y2="4982.9"/>
		<line class="st11" x1="1067.5" y1="5112.7" x2="1101.3" y2="4982.9"/>
		<line class="st11" x1="1032.7" y1="5112.7" x2="1066.5" y2="4982.9"/>
		<line class="st11" x1="998" y1="5112.7" x2="1031.8" y2="4982.9"/>
		<line class="st11" x1="963.2" y1="5112.7" x2="997" y2="4982.9"/>
		<line class="st11" x1="928.5" y1="5112.7" x2="962.2" y2="4982.9"/>
	</g>
</g>
<g id="top_stuff">
	<g class="st7">
		<path class="st10" d="M1608.7,154.5H900.2c-14.5,0-26.2-11.7-26.2-26.2v0c0-4,3.2-7.3,7.3-7.3h746.4c4,0,7.3,3.2,7.3,7.3v0
			C1634.9,142.7,1623.2,154.5,1608.7,154.5z"/>
		<g>
			<defs>
				<path id="SVGID_10_" d="M1608.7,154.5H900.2c-14.5,0-26.2-11.7-26.2-26.2v0c0-4,3.2-7.3,7.3-7.3h746.4c4,0,7.3,3.2,7.3,7.3v0
					C1634.9,142.7,1623.2,154.5,1608.7,154.5z"/>
			</defs>
			<clipPath id="SVGID_11_">
				<use xlink:href="#SVGID_10_"  style="overflow:visible;"/>
			</clipPath>
			<line class="st12" x1="926.3" y1="80.3" x2="890" y2="219.9"/>
			<line class="st12" x1="963.8" y1="80.3" x2="927.4" y2="219.9"/>
			<line class="st12" x1="1001.2" y1="80.3" x2="964.8" y2="219.9"/>
			<line class="st12" x1="1038.6" y1="80.3" x2="1002.2" y2="219.9"/>
			<line class="st12" x1="1076" y1="80.3" x2="1039.7" y2="219.9"/>
			<line class="st12" x1="1113.5" y1="80.3" x2="1077.1" y2="219.9"/>
			<line class="st12" x1="1150.9" y1="80.3" x2="1114.5" y2="219.9"/>
			<line class="st12" x1="1188.3" y1="80.3" x2="1151.9" y2="219.9"/>
			<line class="st12" x1="1225.7" y1="80.3" x2="1189.4" y2="219.9"/>
			<line class="st12" x1="1263.2" y1="80.3" x2="1226.8" y2="219.9"/>
			<line class="st12" x1="1300.6" y1="80.3" x2="1264.2" y2="219.9"/>
			<line class="st12" x1="1338" y1="80.3" x2="1301.6" y2="219.9"/>
			<line class="st12" x1="1375.4" y1="80.3" x2="1339.1" y2="219.9"/>
			<line class="st12" x1="1412.9" y1="80.3" x2="1376.5" y2="219.9"/>
			<line class="st12" x1="1450.3" y1="80.3" x2="1413.9" y2="219.9"/>
			<line class="st12" x1="1487.7" y1="80.3" x2="1451.3" y2="219.9"/>
			<line class="st12" x1="1525.1" y1="80.3" x2="1488.8" y2="219.9"/>
			<line class="st12" x1="1562.6" y1="80.3" x2="1526.2" y2="219.9"/>
			<line class="st12" x1="1600" y1="80.3" x2="1563.6" y2="219.9"/>
		</g>
	</g>
	<path class="st13" d="M1737.2,92.2l-42.1,77.5c-4.2,7.8,1.4,17.2,10.3,17.2h28.1c4.4,0,8.4-2.4,10.4-6.3l40.2-77.5
		c4-7.8-1.6-17-10.4-17h-26.2C1743.1,86.1,1739.2,88.4,1737.2,92.2z"/>
	<path class="st14" d="M761.5,92.2l42.1,77.5c4.2,7.8-1.4,17.2-10.3,17.2h-28.1c-4.4,0-8.4-2.4-10.4-6.3l-40.2-77.5
		c-4-7.8,1.6-17,10.4-17h26.2C755.5,86.1,759.5,88.4,761.5,92.2z"/>
</g>
<g id="face_buttons">
	<path class="st15" d="M1249.3,4208.9H712.8c-20.3,0-40.7-1.3-60.8-4l-360.7-47.6c-28.7-3.8-54.2,18.6-54.2,47.5v435.6
		c0,13.6,4.2,26.9,12.1,38.1l218.8,310.7c8.8,12.4,22.3,20.6,37.4,22.5l200,25c6.6,0.8,13.3-1.2,18.1-5.7
		c86.9-80.5,358-73.6,522.9-73.6s442-6.9,528.9,73.6c4.9,4.5,11.5,6.6,18.1,5.7l200-25c15.1-1.9,28.7-10,37.4-22.5l218.8-310.7
		c7.8-11.1,12.1-24.4,12.1-38.1v-435.6c0-29-25.5-51.3-54.2-47.5l-360.7,47.6c-20.2,2.7-40.5,4-60.8,4
		C1785.9,4208.9,1249.3,4208.9,1249.3,4208.9z"/>
	<path class="st16" d="M294.3,4272.4v154.8c0,23.6,16.8,43.8,40,48.2l342.7,63.8c24.1,4.5,47.7-9.5,55.5-32.7l49.7-149.2
		c9.5-28.4-8.5-58.5-37.9-63.7l-392.5-69.4C321.8,4218.8,294.3,4241.9,294.3,4272.4z"/>
	<path class="st16" d="M299.6,4581.8l-4.3,58.1c-0.6,8.6,1.7,17.1,6.5,24.1l147.5,214.7c6,8.8,15.5,14.6,26.1,16l283.8,37.7
		c27.6,3.7,49.5-22.8,40.8-49.3l-82.3-248.4c-4.3-13.1-15.5-22.8-29.1-25.3l-344.7-62.2C321.8,4543.5,301.2,4559.5,299.6,4581.8z"/>
	<path class="st16" d="M798.8,4670.9l71.3,211.2c3.6,10.6,13.5,17.7,24.7,17.7h290.8c14.4,0,26.1-11.7,26.1-26.1v-146.9
		c0-12.6-9.1-23.5-21.5-25.7l-362-64.3C808.6,4633.5,792.5,4652.2,798.8,4670.9z"/>
	<path class="st16" d="M2197.2,4272.4v154.8c0,23.6-16.8,43.8-40,48.2l-342.7,63.8c-24.1,4.5-47.7-9.5-55.5-32.7l-49.7-149.2
		c-9.5-28.4,8.5-58.5,37.9-63.7l392.5-69.4C2169.7,4218.8,2197.2,4241.9,2197.2,4272.4z"/>
	<path class="st16" d="M2191.9,4581.8l4.3,58.1c0.6,8.6-1.7,17.1-6.5,24.1l-147.5,214.7c-6,8.8-15.5,14.6-26.1,16l-283.8,37.7
		c-27.6,3.7-49.5-22.8-40.8-49.3l82.3-248.4c4.3-13.1,15.5-22.8,29.1-25.3l344.7-62.2C2169.6,4543.5,2190.3,4559.5,2191.9,4581.8z"
		/>
	<path class="st16" d="M1692.6,4670.9l-71.3,211.2c-3.6,10.6-13.5,17.7-24.7,17.7h-290.8c-14.4,0-26.1-11.7-26.1-26.1v-146.9
		c0-12.6,9.1-23.5,21.5-25.7l362-64.3C1682.9,4633.5,1699,4652.2,1692.6,4670.9z"/>
	<g>
		
			<image style="overflow:visible;opacity:0.75;" width="3803" height="1488" xlink:href="40DFDBB4F0E96F2F.png"  transform="matrix(0.24 0 0 0.24 789.6583 4299.4526)">
		</image>
		<g>
			<path class="st17" d="M1685.7,4519.4l-62-187.8c-4.3-13.1-16.6-22-30.4-22h-347.2H898.9c-13.8,0-26.1,8.9-30.4,22l-62,187.8
				c-6.1,18.5,5.5,38.1,24.7,41.5l414.6,75.4l0,0.1l0.3-0.1l0.3,0.1v-0.1L1661,4561C1680.1,4557.5,1691.8,4537.9,1685.7,4519.4z"/>
		</g>
	</g>
	<linearGradient id="SVGID_12_" gradientUnits="userSpaceOnUse" x1="1232.5675" y1="4586.4199" x2="1253.6046" y2="4586.4199">
		<stop  offset="0" style="stop-color:#FFFFFF"/>
		<stop  offset="1" style="stop-color:#FFFFFF;stop-opacity:0"/>
	</linearGradient>
	<circle class="st18" cx="1243.1" cy="4586.4" r="10.5"/>
	<g>
		<linearGradient id="SVGID_13_" gradientUnits="userSpaceOnUse" x1="1004.5482" y1="4550.2881" x2="1025.5852" y2="4550.2881">
			<stop  offset="0" style="stop-color:#FFFFFF"/>
			<stop  offset="1" style="stop-color:#FFFFFF;stop-opacity:0"/>
		</linearGradient>
		<circle class="st19" cx="1015.1" cy="4550.3" r="10.5"/>
		<linearGradient id="SVGID_14_" gradientUnits="userSpaceOnUse" x1="1156.561" y1="4574.376" x2="1177.5981" y2="4574.376">
			<stop  offset="0" style="stop-color:#FFFFFF"/>
			<stop  offset="1" style="stop-color:#FFFFFF;stop-opacity:0"/>
		</linearGradient>
		<circle class="st20" cx="1167.1" cy="4574.4" r="10.5"/>
		<linearGradient id="SVGID_15_" gradientUnits="userSpaceOnUse" x1="1080.5547" y1="4562.332" x2="1101.5917" y2="4562.332">
			<stop  offset="0" style="stop-color:#FFFFFF"/>
			<stop  offset="1" style="stop-color:#FFFFFF;stop-opacity:0"/>
		</linearGradient>
		<circle class="st21" cx="1091.1" cy="4562.3" r="10.5"/>
	</g>
	<g>
		<linearGradient id="SVGID_16_" gradientUnits="userSpaceOnUse" x1="1046.8434" y1="4515.6816" x2="1067.8804" y2="4515.6816">
			<stop  offset="0" style="stop-color:#FFFFFF"/>
			<stop  offset="1" style="stop-color:#FFFFFF;stop-opacity:0"/>
		</linearGradient>
		<circle class="st22" cx="1057.4" cy="4515.7" r="10.5"/>
		<linearGradient id="SVGID_17_" gradientUnits="userSpaceOnUse" x1="1198.8562" y1="4539.7695" x2="1219.8933" y2="4539.7695">
			<stop  offset="0" style="stop-color:#FFFFFF"/>
			<stop  offset="1" style="stop-color:#FFFFFF;stop-opacity:0"/>
		</linearGradient>
		<circle class="st23" cx="1209.4" cy="4539.8" r="10.5"/>
		<linearGradient id="SVGID_18_" gradientUnits="userSpaceOnUse" x1="1122.8497" y1="4527.7256" x2="1143.8868" y2="4527.7256">
			<stop  offset="0" style="stop-color:#FFFFFF"/>
			<stop  offset="1" style="stop-color:#FFFFFF;stop-opacity:0"/>
		</linearGradient>
		<circle class="st24" cx="1133.4" cy="4527.7" r="10.5"/>
	</g>
	<g>
		
			<linearGradient id="SVGID_19_" gradientUnits="userSpaceOnUse" x1="-4533.4956" y1="4550.2881" x2="-4512.4585" y2="4550.2881" gradientTransform="matrix(-1 0 0 1 -3051.8718 0)">
			<stop  offset="0" style="stop-color:#FFFFFF;stop-opacity:0"/>
			<stop  offset="1" style="stop-color:#FFFFFF"/>
		</linearGradient>
		<circle class="st25" cx="1471.1" cy="4550.3" r="10.5"/>
		
			<linearGradient id="SVGID_20_" gradientUnits="userSpaceOnUse" x1="-4381.4829" y1="4574.376" x2="-4360.4458" y2="4574.376" gradientTransform="matrix(-1 0 0 1 -3051.8718 0)">
			<stop  offset="0" style="stop-color:#FFFFFF;stop-opacity:0"/>
			<stop  offset="1" style="stop-color:#FFFFFF"/>
		</linearGradient>
		<circle class="st26" cx="1319.1" cy="4574.4" r="10.5"/>
		
			<linearGradient id="SVGID_21_" gradientUnits="userSpaceOnUse" x1="-4457.4893" y1="4562.332" x2="-4436.4521" y2="4562.332" gradientTransform="matrix(-1 0 0 1 -3051.8718 0)">
			<stop  offset="0" style="stop-color:#FFFFFF;stop-opacity:0"/>
			<stop  offset="1" style="stop-color:#FFFFFF"/>
		</linearGradient>
		<circle class="st27" cx="1395.1" cy="4562.3" r="10.5"/>
	</g>
	<g>
		
			<linearGradient id="SVGID_22_" gradientUnits="userSpaceOnUse" x1="-4488.5933" y1="4514.1562" x2="-4467.5566" y2="4514.1562" gradientTransform="matrix(-1 0 0 1 -3051.8718 0)">
			<stop  offset="0" style="stop-color:#FFFFFF;stop-opacity:0"/>
			<stop  offset="1" style="stop-color:#FFFFFF"/>
		</linearGradient>
		<circle class="st28" cx="1426.2" cy="4514.2" r="10.5"/>
		
			<linearGradient id="SVGID_23_" gradientUnits="userSpaceOnUse" x1="-4336.5806" y1="4538.2441" x2="-4315.5435" y2="4538.2441" gradientTransform="matrix(-1 0 0 1 -3051.8718 0)">
			<stop  offset="0" style="stop-color:#FFFFFF;stop-opacity:0"/>
			<stop  offset="1" style="stop-color:#FFFFFF"/>
		</linearGradient>
		<circle class="st29" cx="1274.2" cy="4538.2" r="10.5"/>
		
			<linearGradient id="SVGID_24_" gradientUnits="userSpaceOnUse" x1="-4412.5869" y1="4526.2002" x2="-4391.5498" y2="4526.2002" gradientTransform="matrix(-1 0 0 1 -3051.8718 0)">
			<stop  offset="0" style="stop-color:#FFFFFF;stop-opacity:0"/>
			<stop  offset="1" style="stop-color:#FFFFFF"/>
		</linearGradient>
		<circle class="st30" cx="1350.2" cy="4526.2" r="10.5"/>
	</g>
	<path id="q4gkwg.tif" class="st10" d="M566,4458.7h-72.2c-2.2,0-4.1-1.7-4.2-3.9c-0.1-1.8-0.3-3.6-0.5-5.5
		c-2.8-24.2-5.6-48.4-8.4-72.6c-0.9-7.9-1.8-15.7-2.7-23.7c-0.3-2.5,1.7-4.7,4.2-4.7h94.6c2.5,0,4.5,2.2,4.2,4.7
		c-0.3,2.7-0.6,5.4-0.9,8.1c-2.6,23.6-5.2,47.3-7.7,70.9c-0.8,7.6-1.5,15.3-2.2,22.9C570,4457.1,568.1,4458.7,566,4458.7z
		 M548.7,4439C548.7,4439,548.7,4439,548.7,4439c-0.1,0.6-0.1,1.2-0.1,1.8c-0.1,3.8,1.9,6.2,5,6.2c2.9,0,5-2.2,5.3-5.7
		c1.2-15.3,2.3-30.7,3.5-46c0.7-9.7,1.4-19.3,2.1-29c0.2-3-0.8-5.7-3.9-6c-1.8-0.2-4,1-5.5,2.2c-0.9,0.7-1,2.6-1.1,4.1
		C552.3,4390.6,550.5,4414.8,548.7,4439z M510.8,4441.3c-0.9-9.9-1.9-19.8-2.8-29.6c-1.5-15.4-2.9-30.9-4.4-46.3
		c-0.3-2.7-1.5-5-4.3-5c-1.8,0-4,1.3-5.4,2.6c-0.8,0.7-0.6,2.7-0.5,4.1c1.3,14.5,2.7,28.9,4.1,43.4c1,10.6,2,21.2,3.1,31.8
		c0.3,3.1,2.4,4.7,5.4,4.7C508.8,4446.9,510.8,4444.4,510.8,4441.3z M534.4,4403.6c-0.1,0-0.1,0-0.2,0c0-9.9,0-19.9,0-29.8
		c0-2.9,0.1-5.8,0-8.7c-0.1-3.2-2-4.9-5-5.2c-2.8-0.2-5,2.1-5.2,5.3c0,0.6,0,1.2,0,1.8c0,24.4,0.1,48.8,0.1,73.2c0,1-0.1,2,0.2,2.9
		c0.7,2.6,2.5,4.2,5.3,4c2.8-0.2,4.5-1.7,4.8-4.5c0.1-1.1,0.1-2.2,0.1-3.3C534.4,4427.4,534.4,4415.5,534.4,4403.6z M476,4342.2
		c2.4,4.1,5.8,5.9,10.6,4.5c1.6-0.5,3.3-0.6,5-0.8c28.3-4.8,56.5-9.6,84.8-14.5c4.9-0.8,7.4-4.2,6.6-8.7c-0.8-4.1-4.4-6.2-9.2-5.4
		c-6.2,1-12.5,1.9-18.6,3.3c-3.3,0.8-5.8,0.1-8.3-2c-2.2-1.9-4.5-3.2-7.8-2.5c-7.3,1.5-14.7,2.8-22.2,3.8c-3.7,0.5-6.3,1.9-7.5,5.6
		c-0.8,2.7-2.8,3.5-5.5,3.9c-6.6,0.9-13.1,2.3-19.7,3.2c-3.8,0.5-6.6,2-8.4,5.4C476,4339.3,476,4340.8,476,4342.2z"/>
	<path class="st10" d="M988.2,4747.7v24.9h42.2v11.6h-42.2v39.7H975v-88.1h60v11.9H988.2z M1078.7,4824h-13.2v-62.9h-20.2v-9.8
		l2-0.1c11.4-0.7,18.3-3.8,20.8-15.3h10.6V4824z"/>
	<path class="st10" d="M1395.3,4747.7v24.9h42.2v11.6h-42.2v39.7H1382v-88.1h60v11.9H1395.3z M1511.2,4812.5v11.5h-60.9l0.4-5.6
		c0.6-11.1,3.2-24.4,20.9-33.4l10-5.6c10.4-5.6,14.8-10.8,14.8-19.3c0-8.7-5.7-14.7-16.1-14.7c-10.4,0-17,5.2-17,17.7h-13
		c-0.1-18.3,10.6-29.2,30.3-29.2c17.8,0,29.3,10.8,29.3,25.7c0,12.5-6.8,21.4-21.5,29.3l-8.8,4.9c-9.3,5.2-14,9.8-14.6,18.6H1511.2z
		"/>
	<path class="st10" d="M2022.6,4768.1H1900v-18h104.7v-43.9h18V4768.1z M1900,4736.1l-85.9,23l85.9,23V4736.1z"/>
	<path class="st10" d="M1984.7,4427.7h-100.4v-18.8h100.4c10.8,0,19.5-8.8,19.5-19.5c0-10.8-8.8-19.5-19.5-19.5h-32.9V4351h32.9
		c21.2,0,38.4,17.2,38.4,38.4S2005.8,4427.7,1984.7,4427.7z M1951.7,4336.3l-89.8,24.1l89.8,24.1V4336.3z"/>
	<path class="st10" d="M618.9,4812.1h-18.8v-102.3h-87.1v102.3h-18.8V4691h124.6V4812.1z M589.8,4760h-66.4v14.9h66.4V4760z
		 M589.8,4728.3h-66.4v14.9h66.4V4728.3z"/>
</g>
</svg>
