<?xml version="1.0" encoding="UTF-8" standalone="no"?><!DOCTYPE svg PUBLIC "-//W3C//DTD SVG 1.1//EN" "http://www.w3.org/Graphics/SVG/1.1/DTD/svg11.dtd"><svg width="100%" height="100%" viewBox="0 0 9303 2738" version="1.1" xmlns="http://www.w3.org/2000/svg" xmlns:xlink="http://www.w3.org/1999/xlink" xml:space="preserve" xmlns:serif="http://www.serif.com/" style="fill-rule:evenodd;clip-rule:evenodd;stroke-linejoin:round;stroke-miterlimit:2;"><path d="M6390,487.083c-463.75,0 -839.583,357.084 -839.583,797.917c-0,440.833 375.833,797.917 839.583,797.917c463.75,-0 839.583,-357.084 839.583,-797.917c0,-440.417 -375.833,-797.917 -839.583,-797.917Zm-3.75,1268.33c-249.167,-0 -451.25,-210.417 -451.25,-470c0,-259.584 202.083,-470 451.25,-470c249.167,-0 451.25,210.416 451.25,470c0,259.583 -202.083,470 -451.25,470Z" style="fill:#fff;fill-rule:nonzero;"/><path d="M5310.42,505.417c-139.584,-0 -253.334,106.666 -266.667,242.916l-15,0l0,-218.75l-591.25,0l0,312.917l211.667,-0l-0,888.333l-211.667,0l0,312.917l800,0l0,-312.917l-208.75,0l0,-897.5l19.167,0c26.666,120.417 133.75,210.417 262.5,210.417c148.75,0 269.166,-120.417 269.166,-269.167c0,-148.333 -120.833,-269.166 -269.166,-269.166Z" style="fill:#fff;fill-rule:nonzero;"/><path d="M4301.67,842.5l-0,-312.917l-269.167,0l0,-529.583l-379.167,0l0,529.583l-269.166,0l-0,312.917l269.166,0l0,757.917c0,197.916 -1.25,302.5 80.417,390.833c81.667,88.333 329.583,77.5 564.167,52.917l-0,-300c-264.584,35.416 -265.417,-46.25 -265.417,-143.75l-0,-757.917l269.167,0Z" style="fill:#fff;fill-rule:nonzero;"/><path d="M8846.67,1730.83l-0,-790c-0,-45.833 -4.584,-87.5 -12.5,-125.833c-90.834,-447.5 -677.5,-402.083 -992.917,-87.5l0,-198.333l-589.583,-0l-0,312.916l210.416,0l0,888.334l-210.416,-0l-0,312.916l799.583,0l0,-312.916l-210.417,-0l0,-650.417c266.667,-324.167 626.25,-309.583 626.25,23.75l0,627.083l-210.416,0l-0,312.917l799.583,0l0,-312.917l-209.583,0Z" style="fill:#fff;fill-rule:nonzero;"/><path d="M3291.25,842.5l0,-312.917l-590.833,0l-0,153.334c-132.084,-116.25 -302.5,-186.667 -488.75,-186.667c-202.5,0 -385.834,83.75 -521.667,219.167c92.083,105.833 159.583,235.833 191.667,379.583c70,-156.667 221.666,-265.417 397.5,-265.417c242.5,0 439.583,206.25 439.583,460.834c0,254.583 -196.667,460.833 -439.583,460.833c-46.25,0 -92.917,-7.5 -136.667,-22.917c-42.917,-14.583 -83.333,-36.25 -119.583,-63.75c-36.25,-27.5 -68.334,-60.416 -95,-97.5c-34.584,-48.333 -60.834,-104.166 -74.584,-162.083c-13.333,-57.5 -12.083,-116.25 -16.25,-174.583c-6.25,-97.917 -30.416,-192.917 -71.25,-281.667c-11.666,-25.417 -24.583,-50 -38.75,-73.75c-14.166,-23.75 -29.166,-46.667 -45.833,-68.75c-10.417,-14.167 -21.25,-27.917 -32.917,-40.833c-0.833,-0.834 -1.25,-1.25 -2.083,-2.084c-19.167,-21.25 -38.333,-42.083 -58.75,-61.666c-19.583,-18.334 -40,-35.834 -60.833,-52.084c-21.25,-16.25 -43.334,-31.25 -65.834,-45.416c-22.916,-13.75 -46.25,-26.667 -70.416,-37.917c-24.167,-11.667 -49.167,-21.667 -74.584,-30.417c-25.416,-8.75 -51.666,-16.25 -78.333,-22.083c-26.667,-5.833 -53.75,-10.417 -81.25,-13.333c-25.833,-2.917 -52.083,-4.167 -77.917,-4.167c-185.833,0 -355.833,69.583 -487.916,185l-0,-152.083l-590.417,-0l0,312.916l206.25,0l0,1560.83l-206.25,-0l0,312.916l810,0l0,-312.916l-215.417,-0l0,-501.25c131.667,113.333 300.417,181.25 484.167,181.25c202.917,-0 386.25,-83.75 522.5,-218.75c-92.083,-105.417 -158.75,-234.584 -191.25,-377.5c-70.417,156.25 -222.083,264.583 -397.917,264.583c-243.333,0 -440.416,-206.25 -440.416,-460.833c-0,-254.584 197.083,-460.834 440.416,-460.834c93.334,0 185,31.667 259.167,88.334c90,68.75 152.083,171.25 171.667,282.5c18.333,105 11.25,211.666 40.416,315c31.25,110.833 86.667,215 162.5,302.083c139.167,162.5 340.834,265.833 565.834,265.833c186.25,0 356.666,-70.416 488.75,-186.666l-0,147.083l590.833,-0l0,-312.917l-211.667,0l0,-888.333l211.667,-0Z" style="fill:#fff;fill-rule:nonzero;"/><g><path d="M9207.92,554.583c19.166,7.917 35.833,19.167 49.583,33.334c14.167,14.166 25,30.833 32.917,50c7.916,19.166 12.083,39.583 12.083,61.666c0,22.084 -4.167,42.917 -12.083,61.667c-7.917,19.167 -19.167,35.417 -32.917,49.583c-14.167,14.167 -30.417,25 -49.583,32.917c-19.167,7.917 -39.584,12.083 -62.084,12.083c-22.083,0 -42.916,-4.166 -62.083,-12.083c-19.167,-7.917 -35.833,-19.167 -49.583,-32.917c-14.167,-14.166 -25,-30.416 -32.917,-49.583c-7.917,-18.75 -12.083,-39.583 -12.083,-61.667c-0,-22.083 4.166,-42.5 12.083,-61.666c7.917,-19.167 19.167,-35.834 32.917,-50c14.166,-14.167 30.416,-25.417 49.583,-33.334c19.167,-7.916 39.583,-12.083 62.083,-12.083c22.5,0 42.917,4.167 62.084,12.083Zm-114.584,20.834c-16.25,7.083 -30,16.666 -42.083,28.75c-11.667,12.083 -20.833,26.25 -27.5,42.5c-6.667,16.25 -10,33.75 -10,52.5c0,18.75 3.333,36.25 10,52.5c6.667,16.25 15.833,30.416 27.5,42.5c11.667,12.083 25.833,21.666 42.083,28.75c16.25,7.083 33.75,10.416 52.917,10.416c18.75,0 36.25,-3.333 52.5,-10.416c16.25,-7.084 30,-16.667 42.083,-28.75c11.667,-12.084 21.25,-26.25 27.917,-42.5c6.667,-16.25 10,-33.75 10,-52.5c0,-18.75 -3.333,-36.25 -10,-52.5c-6.667,-16.25 -15.833,-30.417 -27.917,-42.5c-11.666,-12.084 -25.833,-21.667 -42.083,-28.75c-16.25,-7.084 -33.75,-10.417 -52.5,-10.417c-19.167,0 -37.083,3.333 -52.917,10.417Zm-4.166,215l-0,-181.667l69.583,0c20.417,0 35.417,4.167 45,12.917c9.583,8.75 14.167,20.833 14.167,37.5c-0,7.916 -1.25,14.583 -3.75,20.833c-2.5,5.833 -5.834,10.833 -10,15c-4.167,4.167 -9.167,7.5 -14.584,9.583c-5.416,2.5 -11.25,4.167 -17.5,5.417l53.75,80.417l-26.25,-0l-50.833,-80.417l-37.5,0l0,80.417l-22.083,-0Zm71.666,-100.417c6.667,-0.417 12.5,-1.667 17.5,-3.75c5,-2.083 9.167,-5 12.084,-9.583c2.916,-4.584 4.583,-10.417 4.583,-17.917c0,-6.25 -1.25,-11.667 -3.75,-15.417c-2.5,-3.75 -5.833,-7.083 -9.583,-9.583c-4.167,-2.5 -8.75,-4.167 -13.75,-5c-5,-0.833 -10.417,-1.25 -15.834,-1.25l-40.833,0l0,62.917l29.583,-0c6.667,-0 13.334,-0 20,-0.417Z" style="fill:#fff;fill-rule:nonzero;"/></g><g><path d="M4650.42,2348.75l-133.334,0l0,-67.5l344.167,0l-0,67.5l-133.333,0l-0,367.917l-77.5,-0l-0,-367.917Z" style="fill:#fff;fill-rule:nonzero;"/><path d="M4942.5,2281.25l288.333,0l0,67.5l-210.833,0l0,110.833l200,0l0,65l-200,0l0,122.917l222.083,0l0,69.167l-299.583,-0l0,-435.417Z" style="fill:#fff;fill-rule:nonzero;"/><path d="M5662.5,2383.33c-22.917,-31.25 -63.75,-45 -99.167,-45c-89.583,0 -150.833,69.584 -150.833,159.167c0,94.583 57.917,160.417 147.5,160.417c46.667,-0 83.75,-20.417 105.833,-50.417l62.084,43.75c-37.917,47.917 -94.584,76.25 -168.334,76.25c-135.833,0 -232.5,-94.167 -232.5,-230c0,-139.583 102.084,-227.5 236.25,-227.5c56.667,0 123.75,20.833 157.917,66.25l-58.75,47.083Z" style="fill:#fff;fill-rule:nonzero;"/><path d="M5806.67,2281.25l77.5,0l-0,175.833l203.333,0l-0,-175.833l77.5,0l-0,435.417l-77.5,-0l0,-192.917l-203.333,0l-0,192.917l-77.5,-0l-0,-435.417Z" style="fill:#fff;fill-rule:nonzero;"/><path d="M6292.08,2281.25l102.5,0l202.5,325.833l1.25,0l0,-325.833l77.5,0l0,435.417l-98.333,-0l-206.667,-336.25l-1.25,-0l0,336.25l-77.5,-0l0,-435.417Z" style="fill:#fff;fill-rule:nonzero;"/><path d="M7014.17,2270c135.833,0 235,87.917 235,227.5c-0,135.833 -99.167,230 -235,230c-134.167,0 -232.917,-94.167 -232.917,-230c0,-139.583 99.167,-227.5 232.917,-227.5Zm0.833,387.917c89.167,-0 150,-67.5 150,-160.417c0,-89.583 -59.583,-159.167 -150,-159.167c-89.583,0 -149.583,69.584 -149.583,159.167c-0,92.917 60.833,160.417 149.583,160.417Z" style="fill:#fff;fill-rule:nonzero;"/><path d="M7355,2281.25l77.5,0l0,366.667l185,-0l0,68.75l-262.5,-0l0,-435.417Z" style="fill:#fff;fill-rule:nonzero;"/><path d="M7893.75,2270c135.833,0 235,87.917 235,227.5c0,135.833 -99.167,230 -235,230c-134.167,0 -232.917,-94.167 -232.917,-230c-0.416,-139.583 98.75,-227.5 232.917,-227.5Zm0.417,387.917c89.166,-0 150,-67.5 150,-160.417c-0,-89.583 -59.584,-159.167 -150,-159.167c-89.584,0 -149.584,69.584 -149.584,159.167c0,92.917 60.834,160.417 149.584,160.417Z" style="fill:#fff;fill-rule:nonzero;"/><path d="M8615.42,2693.75c-43.75,20.833 -95.834,33.75 -164.167,33.75c-140,0 -237.917,-94.167 -237.917,-230c0,-139.583 102.084,-227.5 236.25,-227.5c68.75,0 130.417,22.083 165.417,54.583l-53.333,57.917c-22.084,-24.583 -64.584,-44.167 -111.25,-44.167c-91.667,0 -151.25,69.584 -151.25,159.167c-0,92.917 59.166,160.417 155,160.417c32.5,-0 61.666,-5 86.666,-15.417l0,-110.833l-91.666,-0l-0,-63.75l166.666,-0l-0.416,225.833Z" style="fill:#fff;fill-rule:nonzero;"/><path d="M8815.83,2527.92l-163.75,-246.667l94.584,0l109.583,183.333l110.833,-183.333l89.584,0l-163.75,246.667l-0,188.75l-77.5,-0l-0,-188.75l0.416,-0Z" style="fill:#fff;fill-rule:nonzero;"/></g></svg>