<?xml version="1.0" encoding="UTF-8" standalone="no"?><!DOCTYPE svg PUBLIC "-//W3C//DTD SVG 1.1//EN" "http://www.w3.org/Graphics/SVG/1.1/DTD/svg11.dtd"><svg width="100%" height="100%" viewBox="0 0 500 146" version="1.1" xmlns="http://www.w3.org/2000/svg" xmlns:xlink="http://www.w3.org/1999/xlink" xml:space="preserve" xmlns:serif="http://www.serif.com/" style="fill-rule:evenodd;clip-rule:evenodd;stroke-linejoin:round;stroke-miterlimit:2;"><g id="XMLID_1_"><g><path d="M347.079,25.948c-25.026,0 -45.307,19.023 -45.307,42.507c-0,23.484 20.281,42.507 45.307,42.507c25.026,0 45.308,-19.023 45.308,-42.507c-0,-23.462 -20.282,-42.507 -45.308,-42.507Zm-0.202,67.567c-13.446,0 -24.351,-11.209 -24.351,-25.038c-0,-13.828 10.905,-25.038 24.351,-25.038c13.446,0 24.351,11.21 24.351,25.038c0,13.829 -10.905,25.038 -24.351,25.038Z" style="fill:#222;fill-rule:nonzero;"/><path d="M288.82,26.925c-7.532,-0 -13.67,5.682 -14.39,12.941l-0.809,-0l-0,-11.654l-31.907,0l0,16.67l11.423,0l-0,47.324l-11.423,-0l0,16.67l43.172,-0l-0,-16.67l-11.265,-0l-0,-47.812l1.034,-0c1.439,6.415 7.218,11.209 14.165,11.209c8.028,0 14.526,-6.415 14.526,-14.339c-0,-7.902 -6.521,-14.339 -14.526,-14.339Z" style="fill:#222;fill-rule:nonzero;"/><path d="M232.36,44.882l0,-16.67l-14.525,0l0,-28.212l-20.461,0l-0,28.212l-14.526,0l0,16.67l14.526,0l-0,40.376c-0,10.544 -0.068,16.115 4.339,20.821c4.407,4.706 17.786,4.128 30.445,2.819l0,-15.982c-14.278,1.887 -14.323,-2.464 -14.323,-7.658l0,-40.376l14.525,0Z" style="fill:#222;fill-rule:nonzero;"/><path d="M475.379,92.206l-0,-42.086c-0,-2.441 -0.247,-4.661 -0.675,-6.703c-4.901,-23.839 -36.56,-21.42 -53.582,-4.661l0,-10.566l-31.816,0l0,16.67l11.355,-0l0,47.324l-11.355,-0l0,16.669l43.149,0l-0,-16.669l-11.355,-0l-0,-34.65c14.39,-17.269 33.795,-16.492 33.795,1.265l-0,33.407l-11.355,-0l0,16.67l43.149,-0l-0,-16.67l-11.31,-0Z" style="fill:#222;fill-rule:nonzero;"/><path d="M177.609,44.882l0,-16.67l-31.883,0l-0,8.169c-7.128,-6.193 -16.325,-9.945 -26.375,-9.945c-10.928,0 -20.822,4.462 -28.152,11.676c4.97,5.638 8.612,12.563 10.343,20.221c3.778,-8.346 11.963,-14.139 21.451,-14.139c13.087,-0 23.722,10.987 23.722,24.55c-0,13.562 -10.613,24.549 -23.722,24.549c-2.496,0 -5.014,-0.399 -7.375,-1.22c-2.316,-0.777 -4.497,-1.932 -6.453,-3.397c-1.956,-1.465 -3.688,-3.218 -5.127,-5.194c-1.866,-2.574 -3.283,-5.549 -4.025,-8.634c-0.719,-3.063 -0.652,-6.193 -0.876,-9.301c-0.338,-5.216 -1.642,-10.277 -3.845,-15.005c-0.63,-1.354 -1.327,-2.663 -2.091,-3.929c-0.765,-1.265 -1.574,-2.486 -2.474,-3.662c-0.562,-0.755 -1.147,-1.487 -1.776,-2.175c-0.045,-0.045 -0.068,-0.067 -0.113,-0.111c-1.034,-1.132 -2.068,-2.242 -3.17,-3.285c-1.057,-0.977 -2.159,-1.909 -3.283,-2.775c-1.147,-0.866 -2.338,-1.665 -3.552,-2.42c-1.237,-0.732 -2.496,-1.42 -3.8,-2.019c-1.305,-0.622 -2.654,-1.155 -4.025,-1.621c-1.372,-0.466 -2.788,-0.866 -4.227,-1.176c-1.439,-0.311 -2.901,-0.555 -4.385,-0.711c-1.394,-0.155 -2.811,-0.222 -4.205,-0.222c-10.028,0 -19.202,3.707 -26.33,9.856l0,-8.102l-31.861,0l0,16.67l11.13,-0l0,83.149l-11.13,0l0,16.67l43.711,0l-0,-16.67l-11.625,0l0,-26.703c7.105,6.038 16.212,9.656 26.128,9.656c10.95,0 20.843,-4.461 28.196,-11.653c-4.969,-5.616 -8.567,-12.497 -10.321,-20.111c-3.8,8.324 -11.984,14.095 -21.473,14.095c-13.131,0 -23.767,-10.987 -23.767,-24.549c0,-13.563 10.636,-24.55 23.767,-24.55c5.037,-0 9.984,1.687 13.986,4.706c4.857,3.662 8.207,9.123 9.264,15.049c0.989,5.594 0.607,11.276 2.181,16.781c1.686,5.904 4.677,11.454 8.769,16.093c7.51,8.656 18.393,14.161 30.535,14.161c10.05,0 19.247,-3.751 26.375,-9.944l-0,7.836l31.883,-0l0,-16.67l-11.422,-0l-0,-47.324l11.422,0Z" style="fill:#222;fill-rule:nonzero;"/><g><path d="M494.873,29.544c1.035,0.422 1.934,1.021 2.676,1.776c0.765,0.754 1.349,1.642 1.776,2.663c0.428,1.021 0.653,2.109 0.653,3.286c-0,1.176 -0.225,2.286 -0.653,3.285c-0.427,1.021 -1.034,1.886 -1.776,2.641c-0.764,0.755 -1.641,1.332 -2.676,1.754c-1.034,0.421 -2.136,0.643 -3.35,0.643c-1.192,0 -2.316,-0.222 -3.35,-0.643c-1.034,-0.422 -1.934,-1.021 -2.676,-1.754c-0.764,-0.755 -1.349,-1.62 -1.776,-2.641c-0.427,-0.999 -0.652,-2.109 -0.652,-3.285c-0,-1.177 0.225,-2.265 0.652,-3.286c0.427,-1.021 1.034,-1.909 1.776,-2.663c0.765,-0.755 1.642,-1.354 2.676,-1.776c1.034,-0.422 2.136,-0.644 3.35,-0.644c1.214,0 2.316,0.222 3.35,0.644Zm-6.183,1.11c-0.877,0.377 -1.619,0.888 -2.271,1.531c-0.63,0.644 -1.124,1.399 -1.484,2.265c-0.36,0.865 -0.54,1.797 -0.54,2.796c0,0.999 0.18,1.931 0.54,2.797c0.36,0.866 0.854,1.62 1.484,2.264c0.63,0.644 1.394,1.154 2.271,1.532c0.877,0.377 1.821,0.555 2.856,0.555c1.011,-0 1.956,-0.178 2.833,-0.555c0.877,-0.378 1.619,-0.888 2.271,-1.532c0.629,-0.644 1.146,-1.398 1.506,-2.264c0.36,-0.866 0.54,-1.798 0.54,-2.797c-0,-0.999 -0.18,-1.931 -0.54,-2.796c-0.36,-0.866 -0.854,-1.621 -1.506,-2.265c-0.63,-0.643 -1.394,-1.154 -2.271,-1.531c-0.877,-0.377 -1.822,-0.555 -2.833,-0.555c-1.035,-0 -2.002,0.178 -2.856,0.555Zm-0.225,11.453l0,-9.677l3.755,-0c1.102,-0 1.911,0.222 2.429,0.688c0.517,0.466 0.764,1.11 0.764,1.997c0,0.422 -0.067,0.777 -0.202,1.11c-0.135,0.311 -0.315,0.577 -0.54,0.799c-0.225,0.222 -0.495,0.4 -0.787,0.511c-0.292,0.133 -0.607,0.222 -0.944,0.288l2.9,4.284l-1.416,0l-2.743,-4.284l-2.024,0l-0,4.284l-1.192,0Zm3.868,-5.349c0.359,-0.022 0.674,-0.089 0.944,-0.2c0.27,-0.111 0.495,-0.266 0.652,-0.51c0.157,-0.244 0.247,-0.555 0.247,-0.955c0,-0.333 -0.067,-0.621 -0.202,-0.821c-0.135,-0.2 -0.315,-0.377 -0.517,-0.511c-0.225,-0.133 -0.472,-0.222 -0.742,-0.266c-0.27,-0.044 -0.562,-0.067 -0.855,-0.067l-2.203,0l-0,3.352l1.596,0c0.36,0 0.72,0 1.08,-0.022Z" style="fill:#222;fill-rule:nonzero;"/></g></g></g><g><path d="M248.932,125.124l-7.195,-0l-0,-3.596l18.572,-0l0,3.596l-7.195,-0l0,19.599l-4.182,0l-0,-19.599Z" style="fill:#222;fill-rule:nonzero;"/><path d="M264.694,121.528l15.56,-0l-0,3.596l-11.378,-0l0,5.904l10.793,0l0,3.463l-10.793,-0l0,6.548l11.985,-0l-0,3.684l-16.167,0l-0,-23.195Z" style="fill:#222;fill-rule:nonzero;"/><path d="M303.548,126.966c-1.237,-1.665 -3.44,-2.397 -5.351,-2.397c-4.835,-0 -8.14,3.707 -8.14,8.479c0,5.039 3.126,8.546 7.96,8.546c2.518,-0 4.519,-1.088 5.711,-2.686l3.35,2.331c-2.046,2.552 -5.104,4.062 -9.084,4.062c-7.33,-0 -12.546,-5.017 -12.546,-12.253c-0,-7.436 5.509,-12.12 12.749,-12.12c3.058,0 6.678,1.11 8.522,3.53l-3.171,2.508Z" style="fill:#222;fill-rule:nonzero;"/><path d="M311.328,121.528l4.182,-0l0,9.367l10.973,-0l-0,-9.367l4.182,-0l0,23.195l-4.182,0l-0,-10.277l-10.973,0l0,10.277l-4.182,0l-0,-23.195Z" style="fill:#222;fill-rule:nonzero;"/><path d="M337.523,121.528l5.531,-0l10.928,17.358l0.068,-0l-0,-17.358l4.182,-0l-0,23.195l-5.307,0l-11.152,-17.912l-0.068,-0l0,17.912l-4.182,0l0,-23.195Z" style="fill:#222;fill-rule:nonzero;"/><path d="M376.49,120.928c7.33,0 12.681,4.684 12.681,12.12c0,7.236 -5.351,12.253 -12.681,12.253c-7.241,-0 -12.57,-5.017 -12.57,-12.253c0,-7.436 5.352,-12.12 12.57,-12.12Zm0.045,20.666c4.811,-0 8.094,-3.596 8.094,-8.546c0,-4.772 -3.215,-8.479 -8.094,-8.479c-4.835,-0 -8.073,3.707 -8.073,8.479c0,4.95 3.283,8.546 8.073,8.546Z" style="fill:#222;fill-rule:nonzero;"/><path d="M394.882,121.528l4.183,-0l-0,19.533l9.983,0l-0,3.662l-14.166,0l0,-23.195Z" style="fill:#222;fill-rule:nonzero;"/><path d="M423.956,120.928c7.33,0 12.681,4.684 12.681,12.12c0,7.236 -5.351,12.253 -12.681,12.253c-7.241,-0 -12.57,-5.017 -12.57,-12.253c-0.022,-7.436 5.329,-12.12 12.57,-12.12Zm0.022,20.666c4.812,-0 8.095,-3.596 8.095,-8.546c-0,-4.772 -3.216,-8.479 -8.095,-8.479c-4.834,-0 -8.072,3.707 -8.072,8.479c-0,4.95 3.283,8.546 8.072,8.546Z" style="fill:#222;fill-rule:nonzero;"/><path d="M462.9,143.503c-2.361,1.11 -5.172,1.798 -8.859,1.798c-7.555,-0 -12.839,-5.017 -12.839,-12.253c-0,-7.436 5.508,-12.12 12.749,-12.12c3.71,0 7.037,1.177 8.926,2.908l-2.878,3.086c-1.192,-1.31 -3.485,-2.353 -6.003,-2.353c-4.947,-0 -8.162,3.707 -8.162,8.479c-0,4.95 3.192,8.546 8.364,8.546c1.754,-0 3.328,-0.267 4.677,-0.822l-0,-5.904l-4.947,0l0,-3.396l8.994,-0l0,12.031l-0.022,-0Z" style="fill:#222;fill-rule:nonzero;"/><path d="M473.715,134.668l-8.837,-13.14l5.104,-0l5.914,9.766l5.981,-9.766l4.834,-0l-8.836,13.14l-0,10.055l-4.183,0l0,-10.055l0.023,0Z" style="fill:#222;fill-rule:nonzero;"/></g></svg>