<?xml version="1.0" encoding="utf-8"?>
<!-- Generator: Adobe Illustrator 23.0.0, SVG Export Plug-In . SVG Version: 6.00 Build 0)  -->
<svg version="1.1" id="Layer_1" xmlns="http://www.w3.org/2000/svg" xmlns:xlink="http://www.w3.org/1999/xlink" x="0px" y="0px"
	 viewBox="0 0 2223.7 657" style="enable-background:new 0 0 2223.7 657;" xml:space="preserve">
<style type="text/css">
	.st0{fill:#FFFFFF;}
	.st1{display:none;}
	.st2{display:inline;fill:#1068A9;}
</style>
<g id="XMLID_1_">
	<g>
		<path class="st0" d="M1543.6,116.9c-111.3,0-201.5,85.7-201.5,191.5c0,105.8,90.2,191.5,201.5,191.5
			c111.3,0,201.5-85.7,201.5-191.5C1745.1,202.7,1654.9,116.9,1543.6,116.9z M1542.7,421.3c-59.8,0-108.3-50.5-108.3-112.8
			c0-62.3,48.5-112.8,108.3-112.8c59.8,0,108.3,50.5,108.3,112.8C1651,370.8,1602.5,421.3,1542.7,421.3z"/>
		<path class="st0" d="M1284.5,121.3c-33.5,0-60.8,25.6-64,58.3h-3.6v-52.5H1075v75.1h50.8v213.2H1075v75.1H1267v-75.1h-50.1V202.2
			V200h4.6c6.4,28.9,32.1,50.5,63,50.5c35.7,0,64.6-28.9,64.6-64.6C1349.1,150.3,1320.1,121.3,1284.5,121.3z"/>
		<path class="st0" d="M1033.4,202.2v-75.1h-64.6V0h-91v127.1h-64.6v75.1h64.6v181.9c0,47.5-0.3,72.6,19.3,93.8
			c19.6,21.2,79.1,18.6,135.4,12.7v-72c-63.5,8.5-63.7-11.1-63.7-34.5V202.2H1033.4z"/>
		<path class="st0" d="M2114.2,415.4V225.8c0-11-1.1-21-3-30.2c-21.8-107.4-162.6-96.5-238.3-21v-47.6h-141.5v75.1h50.5v213.2h-50.5
			v75.1h191.9v-75.1h-50.5V259.2c64-77.8,150.3-74.3,150.3,5.7v150.5h-50.5v75.1h191.9v-75.1H2114.2z"/>
		<path class="st0" d="M789.9,202.2v-75.1H648.1v36.8c-31.7-27.9-72.6-44.8-117.3-44.8c-48.6,0-92.6,20.1-125.2,52.6
			c22.1,25.4,38.3,56.6,46,91.1c16.8-37.6,53.2-63.7,95.4-63.7c58.2,0,105.5,49.5,105.5,110.6S605.3,420.3,547,420.3
			c-11.1,0-22.3-1.8-32.8-5.5c-10.3-3.5-20-8.7-28.7-15.3c-8.7-6.6-16.4-14.5-22.8-23.4c-8.3-11.6-14.6-25-17.9-38.9
			c-3.2-13.8-2.9-27.9-3.9-41.9c-1.5-23.5-7.3-46.3-17.1-67.6c-2.8-6.1-5.9-12-9.3-17.7c-3.4-5.7-7-11.2-11-16.5
			c-2.5-3.4-5.1-6.7-7.9-9.8c-0.2-0.2-0.3-0.3-0.5-0.5c-4.6-5.1-9.2-10.1-14.1-14.8c-4.7-4.4-9.6-8.6-14.6-12.5
			c-5.1-3.9-10.4-7.5-15.8-10.9c-5.5-3.3-11.1-6.4-16.9-9.1c-5.8-2.8-11.8-5.2-17.9-7.3c-6.1-2.1-12.4-3.9-18.8-5.3
			c-6.4-1.4-12.9-2.5-19.5-3.2c-6.2-0.7-12.5-1-18.7-1c-44.6,0-85.4,16.7-117.1,44.4v-36.5H0v75.1h49.5l0,374.6H0v75.1h194.4v-75.1
			h-51.7V456.4c31.6,27.2,72.1,43.5,116.2,43.5c48.7,0,92.7-20.1,125.4-52.5c-22.1-25.3-38.1-56.3-45.9-90.6
			c-16.9,37.5-53.3,63.5-95.5,63.5c-58.4,0-105.7-49.5-105.7-110.6s47.3-110.6,105.7-110.6c22.4,0,44.4,7.6,62.2,21.2
			c21.6,16.5,36.5,41.1,41.2,67.8c4.4,25.2,2.7,50.8,9.7,75.6c7.5,26.6,20.8,51.6,39,72.5c33.4,39,81.8,63.8,135.8,63.8
			c44.7,0,85.6-16.9,117.3-44.8v35.3h141.8v-75.1h-50.8V202.2H789.9z"/>
		<g>
			<path class="st0" d="M2200.9,133.1c4.6,1.9,8.6,4.6,11.9,8c3.4,3.4,6,7.4,7.9,12c1.9,4.6,2.9,9.5,2.9,14.8c0,5.3-1,10.3-2.9,14.8
				c-1.9,4.6-4.6,8.5-7.9,11.9c-3.4,3.4-7.3,6-11.9,7.9c-4.6,1.9-9.5,2.9-14.9,2.9c-5.3,0-10.3-1-14.9-2.9
				c-4.6-1.9-8.6-4.6-11.9-7.9c-3.4-3.4-6-7.3-7.9-11.9c-1.9-4.5-2.9-9.5-2.9-14.8c0-5.3,1-10.2,2.9-14.8c1.9-4.6,4.6-8.6,7.9-12
				c3.4-3.4,7.3-6.1,11.9-8c4.6-1.9,9.5-2.9,14.9-2.9C2191.4,130.2,2196.3,131.2,2200.9,133.1z M2173.4,138.1
				c-3.9,1.7-7.2,4-10.1,6.9c-2.8,2.9-5,6.3-6.6,10.2c-1.6,3.9-2.4,8.1-2.4,12.6c0,4.5,0.8,8.7,2.4,12.6c1.6,3.9,3.8,7.3,6.6,10.2
				c2.8,2.9,6.2,5.2,10.1,6.9c3.9,1.7,8.1,2.5,12.7,2.5c4.5,0,8.7-0.8,12.6-2.5c3.9-1.7,7.2-4,10.1-6.9c2.8-2.9,5.1-6.3,6.7-10.2
				c1.6-3.9,2.4-8.1,2.4-12.6c0-4.5-0.8-8.7-2.4-12.6c-1.6-3.9-3.8-7.3-6.7-10.2c-2.8-2.9-6.2-5.2-10.1-6.9
				c-3.9-1.7-8.1-2.5-12.6-2.5C2181.5,135.6,2177.2,136.4,2173.4,138.1z M2172.4,189.6v-43.5h16.7c4.9,0,8.5,1,10.8,3.1
				c2.3,2.1,3.4,5,3.4,9c0,1.9-0.3,3.5-0.9,5c-0.6,1.4-1.4,2.6-2.4,3.6c-1,1-2.2,1.8-3.5,2.3c-1.3,0.6-2.7,1-4.2,1.3l12.9,19.3h-6.3
				l-12.2-19.3h-9v19.3H2172.4z M2189.6,165.6c1.6-0.1,3-0.4,4.2-0.9c1.2-0.5,2.2-1.2,2.9-2.3c0.7-1.1,1.1-2.5,1.1-4.3
				c0-1.5-0.3-2.8-0.9-3.7c-0.6-0.9-1.4-1.7-2.3-2.3c-1-0.6-2.1-1-3.3-1.2c-1.2-0.2-2.5-0.3-3.8-0.3h-9.8v15.1h7.1
				C2186.4,165.7,2188,165.7,2189.6,165.6z"/>
		</g>
	</g>
</g>
<g class="st1">
	<path class="st2" d="M1109.1,556.8H1075v-17.3h88v17.3h-34.1v94h-19.8V556.8z"/>
	<path class="st2" d="M1175.9,539.5h73.7v17.3h-53.9v28.3h51.1v16.7h-51.1v31.4h56.7v17.6h-76.5V539.5z"/>
	<path class="st2" d="M1352.1,565.6c-5.8-8-16.3-11.5-25.3-11.5c-22.9,0-38.5,17.8-38.5,40.7c0,24.2,14.8,41,37.7,41
		c11.9,0,21.4-5.2,27-12.9l15.9,11.2c-9.7,12.3-24.2,19.5-43.1,19.5c-34.7,0-59.4-24-59.4-58.8c0-35.7,26.1-58.1,60.3-58.1
		c14.5,0,31.6,5.3,40.4,17L1352.1,565.6z"/>
	<path class="st2" d="M1381.1,539.5h19.8v44.9h52v-44.9h19.8v111.3H1453v-49.3h-52v49.3h-19.8V539.5z"/>
	<path class="st2" d="M1497.3,539.5h26.2l51.7,83.3h0.3v-83.3h19.8v111.3h-25.1l-52.8-86h-0.3v86h-19.8V539.5z"/>
	<path class="st2" d="M1674.1,536.7c34.7,0,60,22.5,60,58.1c0,34.7-25.3,58.8-60,58.8c-34.3,0-59.6-24-59.6-58.8
		C1614.5,559.1,1639.8,536.7,1674.1,536.7z M1674.2,635.8c22.8,0,38.3-17.3,38.3-41c0-22.9-15.2-40.7-38.3-40.7
		c-22.9,0-38.2,17.8-38.2,40.7C1636,618.5,1651.6,635.8,1674.2,635.8z"/>
	<path class="st2" d="M1753.3,539.5h19.8v93.7h47.3v17.6h-67.1V539.5z"/>
	<path class="st2" d="M1883,536.7c34.7,0,60,22.5,60,58.1c0,34.7-25.3,58.8-60,58.8c-34.3,0-59.6-24-59.6-58.8
		C1823.5,559.1,1848.8,536.7,1883,536.7z M1883.2,635.8c22.8,0,38.3-17.3,38.3-41c0-22.9-15.2-40.7-38.3-40.7
		c-22.9,0-38.2,17.8-38.2,40.7C1845,618.5,1860.6,635.8,1883.2,635.8z"/>
	<path class="st2" d="M2059.7,644.9c-11.2,5.3-24.5,8.6-42,8.6c-35.8,0-60.8-24-60.8-58.8c0-35.7,26.1-58.1,60.3-58.1
		c17.6,0,33.3,5.7,42.3,14l-13.7,14.8c-5.7-6.3-16.5-11.3-28.4-11.3c-23.4,0-38.7,17.8-38.7,40.7c0,23.7,15.1,41,39.6,41
		c8.3,0,15.7-1.3,22.2-3.9v-28.3h-23.4v-16.3h42.6V644.9z"/>
	<path class="st2" d="M2103,602.5l-41.8-63h24.2l28,46.8l28.3-46.8h22.9l-41.8,63v48.2H2103V602.5z"/>
</g>
<g>
	<path class="st0" d="M1107.1,563.7h-32v-16.2h82.6v16.2h-32V652h-18.6V563.7z"/>
	<path class="st0" d="M1177.2,547.5h69.2v16.2h-50.6v26.6h48v15.6h-48v29.5h53.3V652h-71.9V547.5z"/>
	<path class="st0" d="M1350,572c-5.5-7.5-15.3-10.8-23.8-10.8c-21.5,0-36.2,16.7-36.2,38.2c0,22.7,13.9,38.5,35.4,38.5
		c11.2,0,20.1-4.9,25.4-12.1l14.9,10.5c-9.1,11.5-22.7,18.3-40.4,18.3c-32.6,0-55.8-22.6-55.8-55.2c0-33.5,24.5-54.6,56.7-54.6
		c13.6,0,29.7,5,37.9,15.9L1350,572z"/>
	<path class="st0" d="M1384.6,547.5h18.6v42.2h48.8v-42.2h18.6V652h-18.6v-46.3h-48.8V652h-18.6V547.5z"/>
	<path class="st0" d="M1501.1,547.5h24.6l48.6,78.2h0.3v-78.2h18.6V652h-23.6l-49.6-80.7h-0.3V652h-18.6V547.5z"/>
	<path class="st0" d="M1674.4,544.8c32.6,0,56.4,21.1,56.4,54.6c0,32.6-23.8,55.2-56.4,55.2c-32.2,0-55.9-22.6-55.9-55.2
		C1618.5,565.9,1642.3,544.8,1674.4,544.8z M1674.6,637.9c21.4,0,36-16.2,36-38.5c0-21.5-14.3-38.2-36-38.2
		c-21.5,0-35.9,16.7-35.9,38.2C1638.7,621.7,1653.3,637.9,1674.6,637.9z"/>
	<path class="st0" d="M1756.2,547.5h18.6v88h44.4V652h-63V547.5z"/>
	<path class="st0" d="M1885.5,544.8c32.6,0,56.4,21.1,56.4,54.6c0,32.6-23.8,55.2-56.4,55.2c-32.2,0-55.9-22.6-55.9-55.2
		C1829.5,565.9,1853.3,544.8,1885.5,544.8z M1885.6,637.9c21.4,0,36-16.2,36-38.5c0-21.5-14.3-38.2-36-38.2
		c-21.5,0-35.9,16.7-35.9,38.2C1849.7,621.7,1864.3,637.9,1885.6,637.9z"/>
	<path class="st0" d="M2058.7,646.5c-10.5,5-23,8.1-39.4,8.1c-33.6,0-57.1-22.6-57.1-55.2c0-33.5,24.5-54.6,56.7-54.6
		c16.5,0,31.3,5.3,39.7,13.1l-12.8,13.9c-5.3-5.9-15.5-10.6-26.7-10.6c-22,0-36.3,16.7-36.3,38.2c0,22.3,14.2,38.5,37.2,38.5
		c7.8,0,14.8-1.2,20.8-3.7v-26.6h-22v-15.3h40V646.5z"/>
	<path class="st0" d="M2106.8,606.7l-39.3-59.2h22.7l26.3,44l26.6-44h21.5l-39.3,59.2V652h-18.6V606.7z"/>
</g>
</svg>
